<svg width="200" height="300" viewBox="0 0 200 300" fill="none" xmlns="http://www.w3.org/2000/svg">
    <rect width="200" height="300" fill="url(#paint0_linear_2055_16786)"/>
    <path d="M178.667 220.168C178.667 229.039 178.667 223.254 178.667 235C167.651 235 159.777 235 152.596 235H100.333H48.0704C40.8898 235 34.0561 235 22 235C22 225.477 22.0001 229.039 22.0001 220.168C22.0001 213.25 22.3469 206.719 23.0404 200.574C23.734 194.429 25.0192 188.243 26.8959 182.017C28.7726 175.791 31.1594 170.46 34.0561 166.024C36.9528 161.588 40.7878 157.967 45.5613 155.159C50.3347 152.351 55.8221 150.947 62.0235 150.947C72.7127 161.365 85.4827 166.573 100.333 166.573C115.184 166.573 127.954 161.365 138.643 150.947C144.845 150.947 150.332 152.351 155.105 155.159C159.879 157.967 163.714 161.588 166.611 166.024C169.507 170.46 171.894 175.791 173.771 182.017C175.648 188.243 176.933 194.429 177.626 200.574C178.32 206.719 178.667 213.25 178.667 220.168ZM147.333 111.88C147.333 124.821 142.744 135.869 133.564 145.026C124.384 154.182 113.307 158.76 100.333 158.76C87.3594 158.76 76.2826 154.182 67.1029 145.026C57.9232 135.869 53.3334 124.821 53.3334 111.88C53.3334 98.9392 57.9232 87.8907 67.1029 78.7344C76.2826 69.5781 87.3594 65 100.333 65C113.307 65 124.384 69.5781 133.564 78.7344C142.744 87.8907 147.333 98.9392 147.333 111.88Z" fill="#3B3A40"/>
    <defs>
        <linearGradient id="paint0_linear_2055_16786" x1="200" y1="300" x2="-36.8482" y2="32.6434" gradientUnits="userSpaceOnUse">
            <stop stop-color="#19181C"/>
            <stop offset="0.501428" stop-color="#201F23"/>
            <stop offset="1" stop-color="#19181C"/>
        </linearGradient>
    </defs>
</svg>
