<svg width="28" height="28" viewBox="0 0 28 28" fill="none" xmlns="http://www.w3.org/2000/svg">
    <rect width="28" height="28" rx="6" fill="url(#paint0_linear_2007_1786)"/>
    <path d="M19.989 12.7416C19.989 11.8668 19.3449 11.1353 18.4915 10.9593C18.8325 10.4111 19.0418 9.77712 19.0418 9.09302C19.0418 7.08084 17.3425 5.44446 15.2529 5.44446C13.817 5.44446 12.5799 6.22616 11.9377 7.3636C11.2954 6.22616 10.0584 5.44446 8.62238 5.44446C6.53281 5.44446 4.8335 7.08084 4.8335 9.09302C4.8335 9.91577 5.12903 10.6674 5.60738 11.2785C5.36823 11.4468 5.17357 11.6669 5.03913 11.9211C4.90469 12.1753 4.83425 12.4563 4.8335 12.7416V20.0387C4.8335 21.0448 5.68315 21.863 6.72794 21.863H18.0946C19.1394 21.863 19.989 21.0448 19.989 20.0387V17.6334L23.7779 19.4577V13.0727L19.989 14.897V12.7416ZM15.2529 7.26874C16.2977 7.26874 17.1474 8.08693 17.1474 9.09302C17.1474 10.0991 16.2977 10.9173 15.2529 10.9173C14.2082 10.9173 13.3585 10.0991 13.3585 9.09302C13.3585 8.08693 14.2082 7.26874 15.2529 7.26874ZM8.62238 7.26874C9.66717 7.26874 10.5168 8.08693 10.5168 9.09302C10.5168 10.0991 9.66717 10.9173 8.62238 10.9173C7.5776 10.9173 6.72794 10.0991 6.72794 9.09302C6.72794 8.08693 7.5776 7.26874 8.62238 7.26874Z"
          fill="white"/>
    <defs>
        <linearGradient id="paint0_linear_2007_1786" x1="24.5" y1="-1.75" x2="7.58333" y2="30.3333"
                        gradientUnits="userSpaceOnUse">
            <stop stop-color="#0C71E7"/>
            <stop offset="1" stop-color="#9519E1"/>
        </linearGradient>
    </defs>
</svg>
