<svg width="839" height="337" viewBox="0 0 839 337" fill="none" xmlns="http://www.w3.org/2000/svg">
<mask id="mask0_4035_1246" style="mask-type:alpha" maskUnits="userSpaceOnUse" x="-1" y="0" width="1021" height="745">
<path d="M890.164 101.303C890.164 97.858 887.371 95.0649 883.926 95.0649L783.593 95.065C780.147 95.065 777.354 97.858 777.354 101.303L777.354 262.956C777.354 266.402 780.147 269.195 783.593 269.195L883.926 269.195C887.371 269.195 890.164 266.402 890.164 262.956L890.164 101.303Z" fill="white"/>
<path d="M890.164 291.433C890.164 287.988 887.371 285.195 883.926 285.195L783.593 285.195C780.147 285.195 777.354 287.988 777.354 291.433L777.354 453.086C777.354 456.532 780.147 459.325 783.593 459.325L883.926 459.325C887.371 459.325 890.164 456.532 890.164 453.086L890.164 291.433Z" fill="white"/>
<path d="M761.354 196.368C761.354 192.923 758.561 190.13 755.116 190.13L654.782 190.13C651.337 190.13 648.544 192.923 648.544 196.368L648.544 358.021C648.544 361.467 651.337 364.26 654.782 364.26L755.116 364.26C758.561 364.26 761.354 361.467 761.354 358.021L761.354 196.368Z" fill="white"/>
<path d="M632.544 6.2385C632.544 2.79307 629.751 4.88356e-07 626.305 1.09077e-06L525.972 1.86336e-05C522.527 1.9236e-05 519.734 2.79309 519.734 6.23852L519.734 167.891C519.734 171.337 522.527 174.13 525.972 174.13L626.305 174.13C629.751 174.13 632.544 171.337 632.544 167.891L632.544 6.2385Z" fill="white"/>
<path d="M632.544 196.368C632.544 192.923 629.751 190.13 626.305 190.13L525.972 190.13C522.527 190.13 519.734 192.923 519.734 196.368L519.734 358.021C519.734 361.467 522.527 364.26 525.972 364.26L626.305 364.26C629.751 364.26 632.544 361.467 632.544 358.021L632.544 196.368Z" fill="white"/>
<path d="M503.734 193.933C503.734 190.488 500.94 187.695 497.495 187.695L394.478 187.695C391.033 187.695 388.24 190.488 388.24 193.933L388.24 355.586C388.24 359.032 391.033 361.825 394.478 361.825L497.495 361.825C500.941 361.825 503.734 359.032 503.734 355.586L503.734 193.933Z" fill="white"/>
<path d="M372.24 101.303C372.24 97.858 369.447 95.0649 366.001 95.0649L263.859 95.065C260.413 95.065 257.62 97.858 257.62 101.303L257.62 262.956C257.62 266.402 260.413 269.195 263.859 269.195L366.001 269.195C369.447 269.195 372.24 266.402 372.24 262.956L372.24 101.303Z" fill="white"/>
<path d="M372.24 291.433C372.24 287.988 369.447 285.195 366.001 285.195L263.859 285.195C260.413 285.195 257.62 287.988 257.62 291.433L257.62 453.086C257.62 456.532 260.413 459.325 263.859 459.325L366.001 459.325C369.447 459.325 372.24 456.532 372.24 453.086L372.24 291.433Z" fill="white"/>
<path d="M241.62 196.369C241.62 192.923 238.827 190.13 235.382 190.13L135.048 190.13C131.603 190.13 128.81 192.923 128.81 196.369L128.81 358.022C128.81 361.467 131.603 364.26 135.049 364.26L235.382 364.26C238.827 364.26 241.62 361.467 241.62 358.022L241.62 196.369Z" fill="white"/>
<path d="M112.81 291.434C112.81 287.988 110.017 285.195 106.572 285.195L6.23821 285.195C2.79279 285.195 -0.000281799 287.988 -0.000281197 291.434L-0.000252933 453.086C-0.00025233 456.532 2.79282 459.325 6.23825 459.325L106.572 459.325C110.017 459.325 112.81 456.532 112.81 453.086L112.81 291.434Z" fill="white"/>
</mask>
<g mask="url(#mask0_4035_1246)">
<rect width="1129" height="870" transform="matrix(-1 1.74846e-07 1.74846e-07 1 899.133 -4)" fill="url(#paint0_linear_4035_1246)" fill-opacity="0.2"/>
</g>
<defs>
<linearGradient id="paint0_linear_4035_1246" x1="442.139" y1="486.39" x2="663.639" y2="-24.6102" gradientUnits="userSpaceOnUse">
<stop stop-color="#4B4E85"/>
<stop offset="1" stop-color="#4B4E85" stop-opacity="0.5"/>
</linearGradient>
</defs>
</svg>
