<svg width="200" height="250" viewBox="0 0 200 250" fill="none" xmlns="http://www.w3.org/2000/svg">
<rect width="200" height="250" fill="url(#paint0_linear_1270_16071)"/>
<g opacity="0.5">
<path d="M142.549 125.001L129.758 132.942H126.471V122.354C126.471 122.121 126.418 121.906 126.402 121.676C135.566 119.347 142.353 111.064 142.353 101.177C142.353 95.5609 140.122 90.1743 136.15 86.2027C132.178 82.2312 126.792 80 121.175 80C115.558 80 110.172 82.2312 106.2 86.2027C102.229 90.1743 99.9974 95.5609 99.9974 101.177C99.9974 105.05 101.088 108.647 102.906 111.766H91.8471C91.9715 110.897 92.0588 110.019 92.0588 109.119C92.0588 104.204 90.1066 99.4913 86.6317 96.0165C83.1567 92.5416 78.4437 90.5894 73.5294 90.5894C68.6151 90.5894 63.9021 92.5416 60.4271 96.0165C56.9522 99.4913 55 104.204 55 109.119C55.0022 112.622 55.9983 116.053 57.8725 119.013C59.7467 121.972 62.4222 124.34 65.5882 125.84V154.118C65.5882 156.926 66.7038 159.619 68.6895 161.605C70.6751 163.59 73.3683 164.706 76.1765 164.706H115.882C118.691 164.706 121.384 163.59 123.369 161.605C125.355 159.619 126.471 156.926 126.471 154.118V146.177H129.758L142.549 154.118H145V125.001H142.549ZM128.395 87.8815C130.762 89.1683 132.742 91.0641 134.131 93.3728C135.52 95.6815 136.266 98.3193 136.294 101.013L126.947 99.4569C126.662 98.4734 126.131 97.5788 125.404 96.8575L128.395 87.8815ZM126.013 104.669L135.415 106.236C134.543 108.674 133.059 110.848 131.106 112.549C129.153 114.249 126.796 115.42 124.26 115.948C123.281 114.667 122.02 113.627 120.576 112.909L122.23 107.112C123.745 106.781 125.088 105.913 126.013 104.669ZM121.176 86.0498C121.923 86.0498 122.651 86.1212 123.368 86.2271L120.374 95.2058C119.305 95.3487 118.331 95.7617 117.513 96.3864L109.053 92.1564C110.457 90.2627 112.284 88.724 114.39 87.6636C116.495 86.6031 118.819 86.0504 121.176 86.0498ZM106.049 101.177C106.049 99.6872 106.274 98.2499 106.673 96.8893L115.128 101.117L115.123 101.177C115.123 102.917 115.951 104.473 117.164 105.577L115.395 111.766H110.443C107.633 108.957 106.053 105.149 106.049 101.177ZM81.9921 100.158C83.2191 101.306 84.1975 102.694 84.8668 104.235C85.5361 105.776 85.882 107.438 85.8832 109.119C85.8832 110.029 85.7694 110.911 85.5841 111.766H79.0882C79.4721 110.961 79.705 110.069 79.705 109.119C79.7058 107.901 79.3446 106.71 78.6674 105.699L81.9921 100.158ZM73.5294 96.7649C74.9032 96.7649 76.2029 97.0428 77.4365 97.4558L74.1118 102.999C73.9185 102.98 73.7279 102.94 73.5294 102.94C72.3118 102.94 71.1213 103.301 70.1094 103.978L64.5691 100.656C65.7171 99.429 67.1046 98.4506 68.6458 97.7813C70.187 97.112 71.8491 96.7661 73.5294 96.7649ZM61.1756 109.119C61.1756 107.745 61.4535 106.445 61.8665 105.209L67.4121 108.536C67.3935 108.729 67.3538 108.917 67.3538 109.119C67.3538 111.104 68.3068 112.851 69.7626 113.981C68.0963 115.26 66.8493 117.006 66.1812 118.997C63.1609 116.745 61.1756 113.176 61.1756 109.119Z" fill="#38383F"/>
<path d="M115.882 132.942C118.806 132.942 121.176 130.572 121.176 127.648C121.176 124.724 118.806 122.354 115.882 122.354C112.958 122.354 110.588 124.724 110.588 127.648C110.588 130.572 112.958 132.942 115.882 132.942Z" fill="#56565D"/>
<path d="M76.176 132.942C79.0998 132.942 81.4701 130.572 81.4701 127.648C81.4701 124.724 79.0998 122.354 76.176 122.354C73.2521 122.354 70.8818 124.724 70.8818 127.648C70.8818 130.572 73.2521 132.942 76.176 132.942Z" fill="#56565D"/>
<path d="M115.883 148.824C115.883 147.42 115.325 146.073 114.332 145.08C113.339 144.088 111.993 143.53 110.589 143.53H81.4709C80.0668 143.53 78.7202 144.088 77.7274 145.08C76.7345 146.073 76.1768 147.42 76.1768 148.824V164.706C76.1768 166.11 76.7345 167.457 77.7274 168.449C78.7202 169.442 80.0668 170 81.4709 170H110.589C111.993 170 113.339 169.442 114.332 168.449C115.325 167.457 115.883 166.11 115.883 164.706V148.824Z" fill="#56565D"/>
</g>
<defs>
<linearGradient id="paint0_linear_1270_16071" x1="200" y1="250" x2="9.99348" y2="-7.37759" gradientUnits="userSpaceOnUse">
<stop stop-color="#19181C"/>
<stop offset="0.501428" stop-color="#201F23"/>
<stop offset="1" stop-color="#19181C"/>
</linearGradient>
</defs>
</svg>
