<svg width="20" height="20" viewBox="0 0 20 20" fill="none" xmlns="http://www.w3.org/2000/svg">
    <path d="M3.09247 8.09186L3.33414 7.84186L3.33414 14.1669C3.33414 14.3879 3.42194 14.5998 3.57822 14.7561C3.7345 14.9124 3.94646 15.0002 4.16747 15.0002C4.38849 15.0002 4.60045 14.9124 4.75673 14.7561C4.91301 14.5998 5.00081 14.3879 5.00081 14.1669L5.00081 7.84186L5.24247 8.09186C5.39939 8.24878 5.61222 8.33694 5.83414 8.33694C6.05606 8.33694 6.26889 8.24878 6.42581 8.09186C6.58273 7.93494 6.67088 7.72211 6.67088 7.50019C6.67088 7.27828 6.58273 7.06545 6.42581 6.90853L4.75914 5.24186C4.67989 5.16599 4.58643 5.10652 4.48414 5.06686C4.38439 5.02277 4.27653 5 4.16747 5C4.05841 5 3.95056 5.02277 3.8508 5.06686C3.74851 5.10652 3.65506 5.16599 3.57581 5.24186L1.90914 6.90853C1.83144 6.98623 1.76981 7.07847 1.72776 7.17999C1.68571 7.2815 1.66406 7.39031 1.66406 7.50019C1.66406 7.61008 1.68571 7.71888 1.72776 7.8204C1.76981 7.92192 1.83144 8.01416 1.90914 8.09186C1.98684 8.16956 2.07908 8.23119 2.1806 8.27324C2.28212 8.31529 2.39092 8.33694 2.50081 8.33694C2.61069 8.33694 2.71949 8.31529 2.82101 8.27324C2.92253 8.23119 3.01477 8.16956 3.09247 8.09186Z"
          fill="currentColor" />
    <path d="M17.5007 13.3333H9.16732C8.9463 13.3333 8.73434 13.4211 8.57806 13.5774C8.42178 13.7337 8.33398 13.9457 8.33398 14.1667C8.33398 14.3877 8.42178 14.5996 8.57806 14.7559C8.73434 14.9122 8.9463 15 9.16732 15H17.5007C17.7217 15 17.9336 14.9122 18.0899 14.7559C18.2462 14.5996 18.334 14.3877 18.334 14.1667C18.334 13.9457 18.2462 13.7337 18.0899 13.5774C17.9336 13.4211 17.7217 13.3333 17.5007 13.3333Z"
          fill="currentColor" />
    <path d="M9.16732 10.8333H15.4998C15.7209 10.8333 15.9328 10.7455 16.0891 10.5893C16.2454 10.433 16.3332 10.221 16.3332 10C16.3332 9.77899 16.2454 9.56702 16.0891 9.41074C15.9328 9.25446 15.7209 9.16667 15.4998 9.16667H9.16732C8.9463 9.16667 8.73434 9.25446 8.57806 9.41074C8.42178 9.56702 8.33398 9.77899 8.33398 10C8.33398 10.221 8.42178 10.433 8.57806 10.5893C8.73434 10.7455 8.9463 10.8333 9.16732 10.8333Z"
          fill="currentColor" />
    <path d="M9.16732 6.66667L13.4998 6.66647C13.7209 6.66647 13.9328 6.57868 14.0891 6.42239C14.2454 6.26611 14.3332 6.05415 14.3332 5.83314C14.3332 5.61212 14.2454 5.40016 14.0891 5.24388C13.9328 5.0876 13.7209 4.99981 13.4998 4.99981L9.16732 5C8.9463 5 8.73434 5.0878 8.57806 5.24408C8.42178 5.40036 8.33398 5.61232 8.33398 5.83333C8.33398 6.05435 8.42178 6.26631 8.57806 6.42259C8.73434 6.57887 8.9463 6.66667 9.16732 6.66667Z"
          fill="currentColor" />
</svg>
