<svg width="20" height="20" viewBox="0 0 20 20" fill="none" xmlns="http://www.w3.org/2000/svg">
    <path d="M5.24247 11.9083L5.00081 12.1583V5.83333C5.00081 5.61232 4.91301 5.40036 4.75673 5.24408C4.60045 5.0878 4.38849 5 4.16747 5C3.94646 5 3.7345 5.0878 3.57822 5.24408C3.42194 5.40036 3.33414 5.61232 3.33414 5.83333V12.1583L3.09247 11.9083C2.93555 11.7514 2.72272 11.6633 2.50081 11.6633C2.27889 11.6633 2.06606 11.7514 1.90914 11.9083C1.75222 12.0653 1.66406 12.2781 1.66406 12.5C1.66406 12.7219 1.75222 12.9347 1.90914 13.0917L3.57581 14.7583C3.65506 14.8342 3.74851 14.8937 3.85081 14.9333C3.95056 14.9774 4.05841 15.0002 4.16747 15.0002C4.27653 15.0002 4.38439 14.9774 4.48414 14.9333C4.58643 14.8937 4.67989 14.8342 4.75914 14.7583L6.42581 13.0917C6.5035 13.014 6.56514 12.9217 6.60719 12.8202C6.64924 12.7187 6.67088 12.6099 6.67088 12.5C6.67088 12.3901 6.64924 12.2813 6.60719 12.1798C6.56514 12.0783 6.5035 11.986 6.42581 11.9083C6.34811 11.8306 6.25587 11.769 6.15435 11.727C6.05283 11.6849 5.94402 11.6633 5.83414 11.6633C5.72426 11.6633 5.61545 11.6849 5.51393 11.727C5.41241 11.769 5.32017 11.8306 5.24247 11.9083ZM9.16747 6.66667H17.5008C17.7218 6.66667 17.9338 6.57887 18.0901 6.42259C18.2463 6.26631 18.3341 6.05435 18.3341 5.83333C18.3341 5.61232 18.2463 5.40036 18.0901 5.24408C17.9338 5.0878 17.7218 5 17.5008 5H9.16747C8.94646 5 8.7345 5.0878 8.57822 5.24408C8.42194 5.40036 8.33414 5.61232 8.33414 5.83333C8.33414 6.05435 8.42194 6.26631 8.57822 6.42259C8.7345 6.57887 8.94646 6.66667 9.16747 6.66667ZM15.5 9.16667H9.16747C8.94646 9.16667 8.7345 9.25446 8.57822 9.41074C8.42194 9.56703 8.33414 9.77899 8.33414 10C8.33414 10.221 8.42194 10.433 8.57822 10.5893C8.7345 10.7455 8.94646 10.8333 9.16747 10.8333H15.5C15.721 10.8333 15.933 10.7455 16.0893 10.5893C16.2455 10.433 16.3333 10.221 16.3333 10C16.3333 9.77899 16.2455 9.56703 16.0893 9.41074C15.933 9.25446 15.721 9.16667 15.5 9.16667ZM13.5 13.3335L9.16747 13.3333C8.94646 13.3333 8.7345 13.4211 8.57822 13.5774C8.42194 13.7337 8.33414 13.9457 8.33414 14.1667C8.33414 14.3877 8.42194 14.5996 8.57822 14.7559C8.7345 14.9122 8.94646 15 9.16747 15L13.5 15.0002C13.721 15.0002 13.933 14.9124 14.0893 14.7561C14.2455 14.5998 14.3333 14.3879 14.3333 14.1669C14.3333 13.9458 14.2455 13.7339 14.0893 13.5776C13.933 13.4213 13.721 13.3335 13.5 13.3335Z"
          fill="currentColor"/>
</svg>
