<svg width="18" height="20" viewBox="0 0 18 20" fill="none" xmlns="http://www.w3.org/2000/svg">
    <path d="M11.2369 17C12.1019 17 12.5589 18.024 11.9819 18.668C11.6067 19.0871 11.1474 19.4223 10.634 19.6518C10.1205 19.8813 9.56435 20 9.0019 20C8.43946 20 7.88334 19.8813 7.36985 19.6518C6.85636 19.4223 6.39705 19.0871 6.0219 18.668C5.4699 18.052 5.8639 17.089 6.6559 17.007L6.7659 17.001L11.2369 17ZM9.0019 0C10.3599 0 11.5079 0.903 11.8769 2.141L11.9229 2.312L11.9309 2.355C13.0334 2.97671 13.973 3.85086 14.6724 4.9058C15.3719 5.96073 15.8114 7.16641 15.9549 8.424L15.9829 8.711L16.0019 9V11.931L16.0229 12.067C16.1598 12.8038 16.5676 13.4627 17.1659 13.914L17.3329 14.031L17.4949 14.13C18.3549 14.617 18.0549 15.896 17.1179 15.994L17.0019 16H1.0019C-0.0260996 16 -0.3851 14.636 0.5089 14.13C0.88993 13.9144 1.21915 13.618 1.47344 13.2616C1.72773 12.9052 1.90094 12.4974 1.9809 12.067L2.0019 11.924L2.0029 8.954C2.06387 7.64788 2.44406 6.37661 3.11019 5.25147C3.77631 4.12632 4.70807 3.18161 5.8239 2.5L6.0719 2.354L6.0819 2.311C6.22296 1.71283 6.54433 1.17241 7.00255 0.762846C7.46076 0.353278 8.03371 0.0943209 8.6439 0.0209999L8.8259 0.00399995L9.0019 0Z" fill="white" fill-opacity="0.5"/>
</svg>
