<svg width="20" height="20" viewBox="0 0 20 20" fill="none" xmlns="http://www.w3.org/2000/svg">
    <path d="M17.3665 18.9414L15.0915 16.6664H2.4998V15.8331L4.16647 14.1664V9.16641C4.16647 8.21641 4.40814 7.27474 4.85814 6.43307L0.924805 2.49974L1.99147 1.44141L18.4248 17.8831L17.3665 18.9414ZM15.8331 13.1664V9.16641C15.8331 6.58307 14.1415 4.30807 11.6665 3.57474V3.33307C11.6665 2.89105 11.4909 2.46712 11.1783 2.15456C10.8658 1.842 10.4418 1.66641 9.9998 1.66641C9.55778 1.66641 9.13385 1.842 8.82129 2.15456C8.50873 2.46712 8.33314 2.89105 8.33314 3.33307V3.57474C7.8248 3.72474 7.33314 3.94974 6.88314 4.24141L15.8331 13.1664ZM9.9998 19.1664C10.4418 19.1664 10.8658 18.9908 11.1783 18.6783C11.4909 18.3657 11.6665 17.9418 11.6665 17.4997H8.33314C8.33314 17.9418 8.50873 18.3657 8.82129 18.6783C9.13385 18.9908 9.55778 19.1664 9.9998 19.1664Z"
          fill="currentColor"/>
</svg>
