<svg width="16" height="16" viewBox="0 0 16 16" fill="none" xmlns="http://www.w3.org/2000/svg">
    <path d="M13.3327 14.6667H5.33268C4.97906 14.6667 4.63992 14.5262 4.38987 14.2761C4.13982 14.0261 3.99935 13.687 3.99935 13.3333V5.33333C3.99935 4.97971 4.13982 4.64057 4.38987 4.39052C4.63992 4.14048 4.97906 4 5.33268 4H13.3327C13.6863 4 14.0254 4.14048 14.2755 4.39052C14.5255 4.64057 14.666 4.97971 14.666 5.33333V13.3333C14.666 13.687 14.5255 14.0261 14.2755 14.2761C14.0254 14.5262 13.6863 14.6667 13.3327 14.6667ZM11.9993 8.66667H9.99935V6.66667H8.66602V8.66667H6.66602V10H8.66602V12H9.99935V10H11.9993V8.66667Z"
          fill="currentColor" />
    <path d="M2.66602 1.33301H10.666V2.66634H2.66602V10.6663H1.33268V2.66634C1.33268 1.93101 1.93068 1.33301 2.66602 1.33301Z"
          fill="currentColor" />
</svg>
