<svg width="16" height="16" viewBox="0 0 16 16" fill="none" xmlns="http://www.w3.org/2000/svg">
    <path d="M7.98444 14C7.83304 14 7.68344 13.9725 7.53567 13.9176C7.38789 13.8627 7.25748 13.7791 7.14444 13.6667L6.25156 12.8625C4.86711 11.6063 3.646 10.3846 2.58822 9.19736C1.52941 8.01062 1 6.777 1 5.4965C1 4.50816 1.336 3.67832 2.008 3.00699C2.68 2.33566 3.51067 2 4.5 2C5.06726 2 5.65811 2.14323 6.27256 2.42968C6.88648 2.71614 7.4623 3.25615 8 4.04973C8.5377 3.25615 9.11352 2.71614 9.72744 2.42968C10.3419 2.14323 10.9327 2 11.5 2C12.4893 2 13.32 2.33566 13.992 3.00699C14.664 3.67832 15 4.50816 15 5.4965C15 6.80653 14.4491 8.06579 13.3472 9.27428C12.2454 10.4823 11.0393 11.6796 9.729 12.8664L8.84078 13.6667C8.72774 13.7796 8.59474 13.8632 8.44178 13.9176C8.28882 13.972 8.13663 13.9995 7.98522 14"
          fill="currentColor"/>
</svg>
