<svg width="16" height="16" viewBox="0 0 16 16" fill="none" xmlns="http://www.w3.org/2000/svg">
    <path d="M3.33333 7.33333H6C6.73333 7.33333 7.33333 6.73333 7.33333 6V3.33333C7.33333 2.6 6.73333 2 6 2H3.33333C2.6 2 2 2.6 2 3.33333V6C2 6.73333 2.6 7.33333 3.33333 7.33333ZM3.33333 14H6C6.73333 14 7.33333 13.4 7.33333 12.6667V10C7.33333 9.26667 6.73333 8.66667 6 8.66667H3.33333C2.6 8.66667 2 9.26667 2 10V12.6667C2 13.4 2.6 14 3.33333 14ZM8.66667 3.33333V6C8.66667 6.73333 9.26667 7.33333 10 7.33333H12.6667C13.4 7.33333 14 6.73333 14 6V3.33333C14 2.6 13.4 2 12.6667 2H10C9.26667 2 8.66667 2.6 8.66667 3.33333ZM10 14H12.6667C13.4 14 14 13.4 14 12.6667V10C14 9.26667 13.4 8.66667 12.6667 8.66667H10C9.26667 8.66667 8.66667 9.26667 8.66667 10V12.6667C8.66667 13.4 9.26667 14 10 14Z"
          fill="currentColor" />
</svg>
