<svg width="20" height="20" viewBox="0 0 20 20" fill="none" xmlns="http://www.w3.org/2000/svg">
    <path d="M8.30625 12.1875L10.5 10.8563L12.6937 12.1875L12.1125 9.69375L14.0625 8.00625L11.4937 7.8L10.5 5.4375L9.50625 7.8L6.9375 8.00625L8.8875 9.69375L8.30625 12.1875ZM3.68284 17.3172C3.43086 17.5691 3 17.3907 3 17.0343V4.5C3 4.0875 3.147 3.7345 3.441 3.441C3.735 3.1475 4.088 3.0005 4.5 3H16.5C16.9125 3 17.2657 3.147 17.5597 3.441C17.8537 3.735 18.0005 4.088 18 4.5V13.5C18 13.9125 17.8532 14.2657 17.5597 14.5597C17.2662 14.8538 16.913 15.0005 16.5 15H6L3.68284 17.3172ZM5.3625 13.5H16.5V4.5H4.5V14.3438L5.3625 13.5Z"
          fill="currentColor"/>
</svg>
