<svg viewBox="0 0 32 32" fill="none" xmlns="http://www.w3.org/2000/svg">
    <path d="M16 2.66699C8.63996 2.66699 2.66663 8.64033 2.66663 16.0003C2.66663 23.3603 8.63996 29.3337 16 29.3337C23.36 29.3337 29.3333 23.3603 29.3333 16.0003C29.3333 8.64033 23.36 2.66699 16 2.66699ZM22.1866 11.7337C21.9866 13.8403 21.12 18.9603 20.68 21.3203C20.4933 22.3203 20.12 22.6537 19.7733 22.6937C19 22.7603 18.4133 22.187 17.6666 21.6937C16.4933 20.9203 15.8266 20.4403 14.6933 19.6937C13.3733 18.827 14.2266 18.347 14.9866 17.5737C15.1866 17.3737 18.6 14.267 18.6666 13.987C18.6759 13.9446 18.6747 13.9006 18.663 13.8587C18.6514 13.8169 18.6298 13.7786 18.6 13.747C18.52 13.6803 18.4133 13.707 18.32 13.7203C18.2 13.747 16.3333 14.987 12.6933 17.4403C12.16 17.8003 11.68 17.987 11.2533 17.9737C10.7733 17.9603 9.86663 17.707 9.18663 17.4803C8.34663 17.2137 7.69329 17.067 7.74663 16.6003C7.77329 16.3603 8.10663 16.1203 8.73329 15.867C12.6266 14.1737 15.2133 13.0537 16.5066 12.5203C20.2133 10.9737 20.9733 10.707 21.48 10.707C21.5866 10.707 21.84 10.7337 22 10.867C22.1333 10.9737 22.1733 11.1203 22.1866 11.227C22.1733 11.307 22.2 11.547 22.1866 11.7337Z"
          fill="currentColor" />
</svg>
