<svg width="20" height="20" viewBox="0 0 20 20" fill="none" xmlns="http://www.w3.org/2000/svg">
    <path fill-rule="evenodd" clip-rule="evenodd"
          d="M12.119 15.8862C12.7994 15.0856 12.8081 13.796 12.1385 12.0068L15.205 11.6235C16.1297 11.5079 16.9572 10.6526 16.6514 9.58177C16.235 8.12355 15.2476 6.13563 13.9016 4.5463C13.1805 3.69492 12.0484 3.45666 11.0528 3.70556L7.58512 4.57247C7.16778 4.6768 6.875 5.05179 6.875 5.48198V10.7335C6.875 10.9842 6.9744 11.211 7.12879 11.3789C7.67452 11.9724 8.68087 13.5557 8.7466 15.6469C8.75882 16.0355 9.01896 16.4327 9.47017 16.5311C10.2281 16.6962 11.4043 16.7272 12.119 15.8862ZM8.125 10.6178C8.80935 11.4021 9.84358 13.1149 9.98401 15.3534C10.5283 15.4257 10.959 15.3209 11.1665 15.0768C11.3931 14.8101 11.6293 14.0447 10.8375 12.1129C10.608 11.553 10.9578 10.8946 11.5903 10.8156L15.0499 10.3831C15.2127 10.3628 15.333 10.2844 15.3985 10.1992C15.458 10.1217 15.4802 10.0324 15.4495 9.92503C15.0811 8.63519 14.1774 6.80614 12.9477 5.35415C12.59 4.93186 11.9796 4.76232 11.3559 4.91823L8.125 5.72597V10.6178Z"
          fill="currentColor"/>
    <path fill-rule="evenodd" clip-rule="evenodd"
          d="M4.0625 11.3125C3.54473 11.3125 3.125 10.8928 3.125 10.375V5.37501C3.125 4.85724 3.54473 4.43751 4.0625 4.43751H5.3125C5.83027 4.43751 6.25 4.85725 6.25 5.37501V10.375C6.25 10.8928 5.83027 11.3125 5.3125 11.3125H4.0625ZM4.375 5.68751V10.0625H5V5.68751H4.375Z"
          fill="currentColor"/>
</svg>
