<svg width="12" height="12" viewBox="0 0 12 12" fill="none" xmlns="http://www.w3.org/2000/svg">
    <path fill-rule="evenodd" clip-rule="evenodd"
          d="M7.515 4.84201H9.4975C9.6585 4.84201 9.8175 4.88201 9.96 4.95801C10.1025 5.03401 10.226 5.14501 10.3185 5.28051C10.4108 5.41708 10.4699 5.57338 10.4909 5.73689C10.5119 5.90039 10.4943 6.06654 10.4395 6.22201L9.2595 9.82251C9.1155 10.2295 9.0195 10.5 8.3175 10.5C7.2815 10.5 6.1795 10.1615 5.239 9.87201C5.003 9.79951 4.777 9.73001 4.565 9.67001H4.5075V4.73901C5.33642 3.92109 6.04939 2.99347 6.6265 1.98201C6.72353 1.79526 6.88293 1.64842 7.077 1.56701C7.26929 1.48683 7.48396 1.47832 7.682 1.54301C7.88 1.60801 8.05 1.74151 8.162 1.92151C8.2745 2.10151 8.322 2.31551 8.2965 2.52701L7.515 4.84201ZM2.0885 5.00001H3.5V9.00001C3.5 9.26523 3.39464 9.51958 3.20711 9.70712C3.01957 9.89466 2.76522 10 2.5 10C2.23478 10 1.98043 9.89466 1.79289 9.70712C1.60536 9.51958 1.5 9.26523 1.5 9.00001V5.58851C1.5 5.26351 1.764 5.00001 2.0885 5.00001Z"
          fill="white"/>
</svg>
