<svg width="20" height="20" viewBox="0 0 20 20" fill="none" xmlns="http://www.w3.org/2000/svg">
    <path fill-rule="evenodd" clip-rule="evenodd"
          d="M12.119 4.17627C12.7994 4.97693 12.8081 6.26645 12.1385 8.0557L15.205 8.43901C16.1297 8.55459 16.9572 9.40985 16.6514 10.4807C16.235 11.9389 15.2476 13.9268 13.9016 15.5162C13.1805 16.3676 12.0484 16.6058 11.0528 16.3569L7.58512 15.49C7.16778 15.3857 6.875 15.0107 6.875 14.5805V9.32894C6.875 9.07824 6.9744 8.85152 7.12879 8.68362C7.67452 8.0901 8.68087 6.50678 8.7466 4.41557C8.75882 4.02702 9.01896 3.62975 9.47017 3.53143C10.2281 3.36627 11.4043 3.33524 12.119 4.17627ZM8.125 9.44471C8.80935 8.66036 9.84358 6.94763 9.98401 4.70911C10.5283 4.63678 10.959 4.74156 11.1665 4.98572C11.3931 5.25238 11.6293 6.01774 10.8375 7.94953C10.608 8.50945 10.9578 9.16784 11.5903 9.2469L15.0499 9.67935C15.2127 9.6997 15.333 9.77804 15.3985 9.86324C15.458 9.94076 15.4802 10.0301 15.4495 10.1375C15.0811 11.4273 14.1774 13.2563 12.9477 14.7083C12.59 15.1306 11.9796 15.3002 11.3559 15.1442L8.125 14.3365V9.44471Z"
          fill="currentColor"/>
    <path fill-rule="evenodd" clip-rule="evenodd"
          d="M4.0625 8.74997C3.54473 8.74997 3.125 9.1697 3.125 9.68747V14.6875C3.125 15.2052 3.54473 15.625 4.0625 15.625H5.3125C5.83027 15.625 6.25 15.2052 6.25 14.6875V9.68747C6.25 9.1697 5.83027 8.74997 5.3125 8.74997H4.0625ZM4.375 14.375V9.99997H5V14.375H4.375Z"
          fill="currentColor"/>
</svg>
