<svg width="20" height="20" viewBox="0 0 20 20" fill="none" xmlns="http://www.w3.org/2000/svg">
    <path fill-rule="evenodd" clip-rule="evenodd"
          d="M12.119 15.8861C12.7994 15.0854 12.8081 13.7959 12.1385 12.0067L15.205 11.6234C16.1297 11.5078 16.9572 10.6525 16.6514 9.58165C16.235 8.12343 15.2476 6.13551 13.9016 4.54618C13.1805 3.6948 12.0484 3.45653 11.0528 3.70543L7.58512 4.57235C7.16778 4.67668 6.875 5.05167 6.875 5.48186V10.7334C6.875 10.9841 6.9744 11.2108 7.12879 11.3787C7.67452 11.9723 8.68087 13.5556 8.7466 15.6468C8.75882 16.0353 9.01896 16.4326 9.47017 16.5309C10.2281 16.6961 11.4043 16.7271 12.119 15.8861Z"
          fill="currentColor"/>
    <path fill-rule="evenodd" clip-rule="evenodd"
          d="M4.0625 11.3124C3.54473 11.3124 3.125 10.8927 3.125 10.3749V5.37489C3.125 4.85712 3.54473 4.43739 4.0625 4.43739H5.3125C5.83027 4.43739 6.25 4.85712 6.25 5.37489V10.3749C6.25 10.8927 5.83027 11.3124 5.3125 11.3124H4.0625Z"
          fill="currentColor"/>
</svg>
