<svg viewBox="0 0 28 28" fill="none" xmlns="http://www.w3.org/2000/svg">
    <path d="M19.3666 6.79C18.5691 5.87956 18.1296 4.71034 18.1299 3.5H14.5249V17.9667C14.4971 18.7495 14.1666 19.4911 13.603 20.0351C13.0394 20.5791 12.2866 20.8832 11.5033 20.8833C9.8466 20.8833 8.46994 19.53 8.46994 17.85C8.46994 15.8433 10.4066 14.3383 12.4016 14.9567V11.27C8.37661 10.7333 4.85327 13.86 4.85327 17.85C4.85327 21.735 8.07327 24.5 11.4916 24.5C15.1549 24.5 18.1299 21.525 18.1299 17.85V10.5117C19.5918 11.5615 21.3469 12.1248 23.1466 12.1217V8.51667C23.1466 8.51667 20.9533 8.62167 19.3666 6.79Z"
          fill="currentColor"/>
</svg>
