<svg width="20" height="20" viewBox="0 0 20 20" fill="none" xmlns="http://www.w3.org/2000/svg">
<path fill-rule="evenodd" clip-rule="evenodd" d="M19.5411 4.81256C19.6801 4.34417 19.5411 4 18.8794 4H16.6914C16.135 4 15.8786 4.29732 15.7395 4.62517C15.7395 4.62517 14.6268 7.3652 13.0505 9.14503C12.5406 9.66024 12.3087 9.82416 12.0306 9.82416C11.8915 9.82416 11.6902 9.66024 11.6902 9.19189V4.81256C11.6902 4.2505 11.5287 4 11.0651 4H7.62678C7.27911 4 7.07003 4.26087 7.07003 4.5081C7.07003 5.04093 7.85811 5.1638 7.93935 6.66264V9.91788C7.93935 10.6316 7.81177 10.761 7.5336 10.761C6.79186 10.761 4.98756 8.0087 3.91744 4.85938C3.70773 4.24726 3.49738 4 2.93819 4H0.750181C0.125035 4 0 4.29732 0 4.62517C0 5.21066 0.741783 8.11462 3.45387 11.9553C5.26191 14.5782 7.80932 16 10.1274 16C11.5182 16 11.6902 15.6842 11.6902 15.1403V13.1579C11.6902 12.5263 11.822 12.4003 12.2624 12.4003C12.5869 12.4003 13.1433 12.5642 14.4414 13.8288C15.9249 15.3276 16.1695 16 17.004 16H19.192C19.8171 16 20.1297 15.6842 19.9494 15.061C19.752 14.4399 19.0437 13.5388 18.1039 12.4705C17.5939 11.8616 16.8289 11.2059 16.5971 10.878C16.2726 10.4565 16.3653 10.2691 16.5971 9.89445C16.5971 9.89445 19.2629 6.10058 19.5411 4.81256Z" fill="#2787F5"/>
</svg>
