<svg width="251" height="250" viewBox="0 0 251 250" fill="none" xmlns="http://www.w3.org/2000/svg">
<rect width="250" height="250" transform="translate(0.5)" fill="url(#paint0_linear_1270_16068)"/>
<path d="M219.625 232.202C219.625 242.847 219.625 235.905 219.625 250C206.406 250 196.957 250 188.341 250H125.625H62.9095C54.2928 250 46.0923 250 31.625 250C31.625 238.573 31.6251 242.847 31.6251 232.202C31.6251 223.9 32.0412 216.062 32.8735 208.688C33.7058 201.315 35.248 193.892 37.5001 186.42C39.7522 178.949 42.6162 172.552 46.0923 167.229C49.5683 161.906 54.1704 157.56 59.8985 154.19C65.6266 150.821 72.2115 149.136 79.6532 149.136C92.4803 161.637 107.804 167.888 125.625 167.888C143.446 167.888 158.77 161.637 171.597 149.136C179.039 149.136 185.623 150.821 191.352 154.19C197.08 157.56 201.682 161.906 205.158 167.229C208.634 172.552 211.498 178.949 213.75 186.42C216.002 193.892 217.544 201.315 218.377 208.688C219.209 216.062 219.625 223.9 219.625 232.202ZM182.025 102.256C182.025 117.785 176.517 131.043 165.502 142.031C154.486 153.018 141.194 158.512 125.625 158.512C110.056 158.512 96.7641 153.018 85.7485 142.031C74.7329 131.043 69.2251 117.785 69.2251 102.256C69.2251 86.727 74.7329 73.4688 85.7485 62.4813C96.7641 51.4938 110.056 46 125.625 46C141.194 46 154.486 51.4938 165.502 62.4813C176.517 73.4688 182.025 86.727 182.025 102.256Z" fill="#3B3A40"/>
<defs>
<linearGradient id="paint0_linear_1270_16068" x1="250" y1="250" x2="75.8837" y2="-44.8163" gradientUnits="userSpaceOnUse">
<stop stop-color="#19181C"/>
<stop offset="0.501428" stop-color="#201F23"/>
<stop offset="1" stop-color="#19181C"/>
</linearGradient>
</defs>
</svg>
