<svg width="200" height="300" viewBox="0 0 200 300" fill="none" xmlns="http://www.w3.org/2000/svg">
    <rect width="200" height="300" fill="url(#paint0_linear_2055_16780)"/>
    <g opacity="0.5">
        <path d="M142.549 150.001L129.758 157.942H126.471V147.354C126.471 147.121 126.418 146.906 126.402 146.676C135.566 144.347 142.353 136.064 142.353 126.177C142.353 120.561 140.122 115.174 136.15 111.203C132.178 107.231 126.792 105 121.175 105C115.558 105 110.172 107.231 106.2 111.203C102.229 115.174 99.9974 120.561 99.9974 126.177C99.9974 130.05 101.088 133.647 102.906 136.766H91.8471C91.9715 135.897 92.0588 135.019 92.0588 134.119C92.0588 129.204 90.1066 124.491 86.6317 121.016C83.1567 117.542 78.4437 115.589 73.5294 115.589C68.6151 115.589 63.9021 117.542 60.4271 121.016C56.9522 124.491 55 129.204 55 134.119C55.0022 137.622 55.9983 141.053 57.8725 144.013C59.7467 146.972 62.4222 149.34 65.5882 150.84V179.118C65.5882 181.926 66.7038 184.619 68.6895 186.605C70.6751 188.59 73.3683 189.706 76.1765 189.706H115.882C118.691 189.706 121.384 188.59 123.369 186.605C125.355 184.619 126.471 181.926 126.471 179.118V171.177H129.758L142.549 179.118H145V150.001H142.549ZM128.395 112.881C130.762 114.168 132.742 116.064 134.131 118.373C135.52 120.682 136.266 123.319 136.294 126.013L126.947 124.457C126.662 123.473 126.131 122.579 125.404 121.858L128.395 112.881ZM126.013 129.669L135.415 131.236C134.543 133.674 133.059 135.848 131.106 137.549C129.153 139.249 126.796 140.42 124.26 140.948C123.281 139.667 122.02 138.627 120.576 137.909L122.23 132.112C123.745 131.781 125.088 130.913 126.013 129.669ZM121.176 111.05C121.923 111.05 122.651 111.121 123.368 111.227L120.374 120.206C119.305 120.349 118.331 120.762 117.513 121.386L109.053 117.156C110.457 115.263 112.284 113.724 114.39 112.664C116.495 111.603 118.819 111.05 121.176 111.05ZM106.049 126.177C106.049 124.687 106.274 123.25 106.673 121.889L115.128 126.117L115.123 126.177C115.123 127.917 115.951 129.473 117.164 130.577L115.395 136.766H110.443C107.633 133.957 106.053 130.149 106.049 126.177ZM81.9921 125.158C83.2191 126.306 84.1975 127.694 84.8668 129.235C85.5361 130.776 85.882 132.438 85.8832 134.119C85.8832 135.029 85.7694 135.911 85.5841 136.766H79.0882C79.4721 135.961 79.705 135.069 79.705 134.119C79.7058 132.901 79.3446 131.71 78.6674 130.699L81.9921 125.158ZM73.5294 121.765C74.9032 121.765 76.2029 122.043 77.4365 122.456L74.1118 127.999C73.9185 127.98 73.7279 127.94 73.5294 127.94C72.3118 127.94 71.1213 128.301 70.1094 128.978L64.5691 125.656C65.7171 124.429 67.1046 123.451 68.6458 122.781C70.187 122.112 71.8491 121.766 73.5294 121.765ZM61.1756 134.119C61.1756 132.745 61.4535 131.445 61.8665 130.209L67.4121 133.536C67.3935 133.729 67.3538 133.917 67.3538 134.119C67.3538 136.104 68.3068 137.851 69.7626 138.981C68.0963 140.26 66.8493 142.006 66.1812 143.997C63.1609 141.745 61.1756 138.176 61.1756 134.119Z" fill="#38383F"/>
        <path d="M115.882 157.942C118.806 157.942 121.176 155.572 121.176 152.648C121.176 149.724 118.806 147.354 115.882 147.354C112.958 147.354 110.588 149.724 110.588 152.648C110.588 155.572 112.958 157.942 115.882 157.942Z" fill="#56565D"/>
        <path d="M76.176 157.942C79.0998 157.942 81.4701 155.572 81.4701 152.648C81.4701 149.724 79.0998 147.354 76.176 147.354C73.2521 147.354 70.8818 149.724 70.8818 152.648C70.8818 155.572 73.2521 157.942 76.176 157.942Z" fill="#56565D"/>
        <path d="M115.883 173.824C115.883 172.42 115.325 171.073 114.332 170.08C113.339 169.088 111.993 168.53 110.589 168.53H81.4709C80.0668 168.53 78.7202 169.088 77.7274 170.08C76.7345 171.073 76.1768 172.42 76.1768 173.824V189.706C76.1768 191.11 76.7345 192.457 77.7274 193.449C78.7202 194.442 80.0668 195 81.4709 195H110.589C111.993 195 113.339 194.442 114.332 193.449C115.325 192.457 115.883 191.11 115.883 189.706V173.824Z" fill="#56565D"/>
    </g>
    <defs>
        <linearGradient id="paint0_linear_2055_16780" x1="200" y1="300" x2="-36.8482" y2="32.6434" gradientUnits="userSpaceOnUse">
            <stop stop-color="#19181C"/>
            <stop offset="0.501428" stop-color="#201F23"/>
            <stop offset="1" stop-color="#19181C"/>
        </linearGradient>
    </defs>
</svg>
