    <svg width="150" height="150" viewBox="0 0 150 150" fill="none" xmlns="http://www.w3.org/2000/svg">
<rect width="150" height="150" rx="6" fill="url(#paint0_linear_4058_648)"/>
<path d="M114.2 66.763C114.2 61.0374 109.984 56.2491 104.398 55.0969C106.63 51.5087 108 47.3593 108 42.8815C108 29.7108 96.8772 19 83.2 19C73.8008 19 65.7036 24.1166 61.5 31.5617C57.2964 24.1166 49.1992 19 39.8 19C26.1228 19 15 29.7108 15 42.8815C15 48.2668 16.9344 53.1863 20.0654 57.1865C18.5001 58.2881 17.2259 59.729 16.346 61.3927C15.466 63.0563 15.0049 64.896 15 66.763V114.526C15 121.111 20.5614 126.467 27.4 126.467H101.8C108.639 126.467 114.2 121.111 114.2 114.526V98.7821L139 110.723V68.9302L114.2 80.8709V66.763ZM83.2 30.9407C90.0386 30.9407 95.6 36.2962 95.6 42.8815C95.6 49.4668 90.0386 54.8222 83.2 54.8222C76.3614 54.8222 70.8 49.4668 70.8 42.8815C70.8 36.2962 76.3614 30.9407 83.2 30.9407ZM39.8 30.9407C46.6386 30.9407 52.2 36.2962 52.2 42.8815C52.2 49.4668 46.6386 54.8222 39.8 54.8222C32.9614 54.8222 27.4 49.4668 27.4 42.8815C27.4 36.2962 32.9614 30.9407 39.8 30.9407Z" fill="white"/>
<defs>
<linearGradient id="paint0_linear_4058_648" x1="131.25" y1="-9.375" x2="40.625" y2="162.5" gradientUnits="userSpaceOnUse">
<stop stop-color="#0C71E7"/>
<stop offset="1" stop-color="#9519E1"/>
</linearGradient>
</defs>
</svg>
