<?xml version="1.0" encoding="iso-8859-1"?>
<!-- Generator: Adobe Illustrator 19.0.0, SVG Export Plug-In . SVG Version: 6.00 Build 0)  -->
<svg version="1.1" id="svg" xmlns="http://www.w3.org/2000/svg" xmlns:xlink="http://www.w3.org/1999/xlink" x="0px" y="0px"
	 viewBox="0 0 511.999 511.999" style="enable-background:new 0 0 511.999 511.999;" xml:space="preserve" fill="currentColor" stroke="currentColor">
<g>
	<g>
		<path d="M480.815,390.403c-3.429-7.75-8.208-14.719-14.204-20.714L191.294,94.373c-0.005-0.005-0.012-0.011-0.017-0.017
			l-31.51-31.51l0.001-0.001l-42.773-42.771C104.051,7.128,86.842,0,68.535,0C50.229,0,33.02,7.129,20.076,20.073
			C7.131,33.018,0.002,50.227,0.002,68.534c0,18.305,7.129,35.516,20.073,48.46l31.526,31.527l318.086,318.09
			c5.994,5.993,12.962,10.771,20.626,14.164c24.128,11.024,89.593,31.215,104.508,31.215c0.079,0,0.158-0.001,0.237-0.003
			c0.214,0.009,0.428,0.013,0.642,0.013c4.335,0,8.47-1.69,11.535-4.758c3.219-3.217,4.921-7.604,4.75-12.164
			c0.002-0.085,0.004-0.169,0.004-0.254C511.991,479.908,491.8,414.441,480.815,390.403z M179.902,105.731l244.149,244.148
			c-1.953-0.165-3.919-0.265-5.902-0.265c-8.416-0.001-16.593,1.523-24.236,4.409L131.512,91.62
			c3.679-0.805,7.467-1.233,11.322-1.233C156.835,90.387,169.999,95.836,179.902,105.731z M31.451,105.618
			c-9.906-9.907-15.361-23.077-15.361-37.085c0-14.009,5.455-27.179,15.361-37.085c9.906-9.906,23.076-15.361,37.085-15.361
			c14.009,0,27.179,5.455,37.085,15.361l0.344,0.344c-1.953-0.165-3.919-0.265-5.902-0.265c-18.305,0-35.516,7.129-48.46,20.073
			c-12.945,12.944-20.074,30.154-20.074,48.46c0,1.982,0.1,3.949,0.265,5.901L31.451,105.618z M74.222,148.392l-11.246-11.246
			c-9.906-9.906-15.361-23.077-15.361-37.085c0-14.009,5.456-27.178,15.362-37.085c9.905-9.906,23.075-15.361,37.084-15.361
			c14.009,0,27.178,5.455,37.085,15.361l11.588,11.588c-1.951-0.165-3.917-0.265-5.899-0.265c-18.305,0-35.516,7.129-48.461,20.073
			c-12.945,12.944-20.073,30.154-20.073,48.461c0,1.983,0.1,3.95,0.265,5.903L74.222,148.392z M349.915,424.086L105.749,179.918
			c-9.904-9.907-15.359-23.077-15.359-37.086c0-3.856,0.428-7.644,1.233-11.321l262.433,262.433
			C350.425,403.606,349.039,413.922,349.915,424.086z M98.178,115.316c2.122-3.43,4.647-6.645,7.572-9.569
			c2.924-2.924,6.138-5.448,9.568-7.571l263.704,263.706c-3.299,2.305-6.429,4.899-9.334,7.805c-2.925,2.926-5.51,6.061-7.795,9.344
			L98.178,115.316z M453.514,485.968c-20.624-6.135-43.631-13.937-56.6-19.864c-5.931-2.627-11.264-6.284-15.85-10.87
			c-20.448-20.449-20.448-53.722,0-74.172c9.906-9.906,23.077-15.361,37.086-15.361c14.01,0,27.18,5.456,37.086,15.362
			c4.588,4.587,8.245,9.92,10.907,15.936c5.905,12.922,13.697,35.903,19.826,56.514c-8.223,0.817-16.075,4.4-22.066,10.389
			C457.914,469.894,454.332,477.746,453.514,485.968z M495.861,495.868c-0.052,0.051-0.176,0.047-0.226,0.042
			c-0.253-0.025-0.506-0.036-0.759-0.036c-0.186,0-0.372,0.006-0.557,0.019c-3.976-0.175-13.301-2.267-24.887-5.396
			c-0.264-5.616,1.811-11.18,5.847-15.217c4.037-4.037,9.602-6.112,15.218-5.849c3.119,11.555,5.209,20.862,5.394,24.856
			c-0.032,0.446-0.027,0.898,0.017,1.349C495.911,495.664,495.922,495.806,495.861,495.868z"/>
	</g>
</g>
<g>
</g>
<g>
</g>
<g>
</g>
<g>
</g>
<g>
</g>
<g>
</g>
<g>
</g>
<g>
</g>
<g>
</g>
<g>
</g>
<g>
</g>
<g>
</g>
<g>
</g>
<g>
</g>
<g>
</g>
</svg>
