<svg width="16" height="16" viewBox="0 0 16 16" fill="none" xmlns="http://www.w3.org/2000/svg">
<path d="M7.99325 1.33333C4.31325 1.33333 1.33325 4.31999 1.33325 8C1.33325 11.68 4.31325 14.6667 7.99325 14.6667C11.6799 14.6667 14.6666 11.68 14.6666 8C14.6666 4.31999 11.6799 1.33333 7.99325 1.33333ZM10.6666 10.6667C10.6049 10.7285 10.5317 10.7775 10.451 10.811C10.3704 10.8444 10.2839 10.8616 10.1966 10.8616C10.1093 10.8616 10.0228 10.8444 9.94217 10.811C9.86152 10.7775 9.78826 10.7285 9.72659 10.6667L7.53325 8.47333C7.47026 8.41159 7.42015 8.33796 7.38582 8.25671C7.35148 8.17546 7.33362 8.0882 7.33325 8V5.33333C7.33325 4.96666 7.63325 4.66666 7.99992 4.66666C8.36659 4.66666 8.66659 4.96666 8.66659 5.33333V7.72666L10.6666 9.72666C10.9266 9.98666 10.9266 10.4067 10.6666 10.6667Z" fill="#9F9F9F"/>
</svg>
