<svg width="18" height="18" viewBox="0 0 18 18" fill="none" xmlns="http://www.w3.org/2000/svg">
<path d="M5.5 4.625C5.5 3.79988 5.5 3.38775 5.75638 3.13138C6.01275 2.875 6.42488 2.875 7.25 2.875H8.7935C9.31938 2.875 9.58275 2.875 9.7945 3.00625C10.0054 3.13663 10.1235 3.372 10.3589 3.84275L11.1875 5.5H14.25C15.0751 5.5 15.4873 5.5 15.7436 5.75638C16 6.01275 16 6.42488 16 7.25V9.875C16 10.7001 16 11.1123 15.7436 11.3686C15.4873 11.625 15.0751 11.625 14.25 11.625H7.25C6.42488 11.625 6.01275 11.625 5.75638 11.3686C5.5 11.1123 5.5 10.7001 5.5 9.875V4.625Z" stroke="#60A7FB" stroke-width="1.5" stroke-linejoin="round"/>
<path d="M13.375 11.625V13.725C13.375 14.215 13.375 14.46 13.2796 14.6473C13.1957 14.8119 13.0619 14.9457 12.8973 15.0296C12.71 15.125 12.465 15.125 11.975 15.125H3.4C2.91 15.125 2.665 15.125 2.47775 15.0296C2.31312 14.9457 2.17926 14.8119 2.09538 14.6473C2 14.46 2 14.215 2 13.725V6.9C2 6.41 2 6.165 2.09538 5.97775C2.17926 5.81312 2.31312 5.67926 2.47775 5.59538C2.665 5.5 2.91 5.5 3.4 5.5H5.5" stroke="#60A7FB" stroke-width="1.5" stroke-linejoin="round"/>
</svg>
