<svg width="40" height="40" viewBox="0 0 40 40" fill="none" xmlns="http://www.w3.org/2000/svg">
<rect width="40" height="40" rx="20" fill="#1475E6" fill-opacity="0.1"/>
<mask id="mask0_952_12361" style="mask-type:alpha" maskUnits="userSpaceOnUse" x="8" y="8" width="24" height="24">
<rect x="8" y="8" width="24" height="24" fill="#D9D9D9"/>
</mask>
<g mask="url(#mask0_952_12361)">
<path d="M11 27C10.45 27 9.97917 26.8042 9.5875 26.4125C9.19583 26.0208 9 25.55 9 25V15C9 14.45 9.19583 13.9792 9.5875 13.5875C9.97917 13.1958 10.45 13 11 13H21C21.55 13 22.0208 13.1958 22.4125 13.5875C22.8042 13.9792 23 14.45 23 15V25C23 25.55 22.8042 26.0208 22.4125 26.4125C22.0208 26.8042 21.55 27 21 27H11ZM11 23.35C11.7333 22.9167 12.5167 22.5833 13.35 22.35C14.1833 22.1167 15.0667 22 16 22C16.9333 22 17.8167 22.1167 18.65 22.35C19.4833 22.5833 20.2667 22.9167 21 23.35V15H11V23.35ZM16 24C15.3167 24 14.65 24.0833 14 24.25C13.35 24.4167 12.7333 24.6667 12.15 25H19.85C19.2667 24.6667 18.65 24.4167 18 24.25C17.35 24.0833 16.6833 24 16 24ZM16 21.25C15.25 21.25 14.6042 20.9792 14.0625 20.4375C13.5208 19.8958 13.25 19.25 13.25 18.5C13.25 17.75 13.5208 17.1042 14.0625 16.5625C14.6042 16.0208 15.25 15.75 16 15.75C16.75 15.75 17.3958 16.0208 17.9375 16.5625C18.4792 17.1042 18.75 17.75 18.75 18.5C18.75 19.25 18.4792 19.8958 17.9375 20.4375C17.3958 20.9792 16.75 21.25 16 21.25ZM16 19.4C16.25 19.4 16.4625 19.3125 16.6375 19.1375C16.8125 18.9625 16.9 18.75 16.9 18.5C16.9 18.25 16.8125 18.0375 16.6375 17.8625C16.4625 17.6875 16.25 17.6 16 17.6C15.75 17.6 15.5375 17.6875 15.3625 17.8625C15.1875 18.0375 15.1 18.25 15.1 18.5C15.1 18.75 15.1875 18.9625 15.3625 19.1375C15.5375 19.3125 15.75 19.4 16 19.4ZM26 27C25.7167 27 25.4792 26.9042 25.2875 26.7125C25.0958 26.5208 25 26.2833 25 26V14C25 13.7167 25.0958 13.4792 25.2875 13.2875C25.4792 13.0958 25.7167 13 26 13C26.2833 13 26.5208 13.0958 26.7125 13.2875C26.9042 13.4792 27 13.7167 27 14V26C27 26.2833 26.9042 26.5208 26.7125 26.7125C26.5208 26.9042 26.2833 27 26 27ZM30 27C29.7167 27 29.4792 26.9042 29.2875 26.7125C29.0958 26.5208 29 26.2833 29 26V14C29 13.7167 29.0958 13.4792 29.2875 13.2875C29.4792 13.0958 29.7167 13 30 13C30.2833 13 30.5208 13.0958 30.7125 13.2875C30.9042 13.4792 31 13.7167 31 14V26C31 26.2833 30.9042 26.5208 30.7125 26.7125C30.5208 26.9042 30.2833 27 30 27Z" fill="#60A5FA"/>
</g>
</svg>
