<svg width="12" height="12" viewBox="0 0 12 12" fill="none" xmlns="http://www.w3.org/2000/svg">
<path d="M11.8402 0.931149C12.0533 0.718136 12.0533 0.372773 11.8402 0.15976C11.6272 -0.0532533 11.2819 -0.0532533 11.0689 0.15976L6 5.22861L0.93115 0.15976C0.718136 -0.0532533 0.372774 -0.0532533 0.15976 0.15976C-0.0532528 0.372773 -0.0532528 0.718136 0.15976 0.931149L5.22861 6L0.15976 11.0688C-0.0532532 11.2819 -0.0532533 11.6272 0.15976 11.8402C0.372774 12.0533 0.718136 12.0533 0.93115 11.8402L6 6.77139L11.0689 11.8402C11.2819 12.0533 11.6272 12.0533 11.8402 11.8402C12.0533 11.6272 12.0533 11.2819 11.8402 11.0689L6.77139 6L11.8402 0.931149Z" fill="white" fill-opacity="0.6"/>
</svg>
