<svg width="20" height="20" viewBox="0 0 20 20" fill="none" xmlns="http://www.w3.org/2000/svg">
    <path fill-rule="evenodd" clip-rule="evenodd"
          d="M10 18C14.4183 18 18 14.4183 18 10C18 5.58172 14.4183 2 10 2C5.58172 2 2 5.58172 2 10C2 14.4183 5.58172 18 10 18ZM11.8667 6.80052C11.8667 7.5369 11.2697 8.13385 10.5334 8.13385C9.79698 8.13385 9.20002 7.5369 9.20002 6.80052C9.20002 6.06414 9.79698 5.46719 10.5334 5.46719C11.2697 5.46719 11.8667 6.06414 11.8667 6.80052ZM10.4267 13.0459C10.6827 13.0459 10.9776 12.9477 10.9808 12.9467C11.0392 12.9268 11.1027 12.9278 11.1605 12.9495C11.2182 12.9712 11.2666 13.0122 11.2975 13.0656C11.3284 13.119 11.3398 13.1815 11.3298 13.2423C11.3198 13.3032 11.289 13.3587 11.2427 13.3995C11.215 13.424 10.5504 14 9.56376 14C9.39416 14 9.22242 13.9819 9.05496 13.9483C8.58402 13.8523 8.22029 13.584 8.03042 13.1931C7.79789 12.7157 7.84429 12.1051 8.16109 11.4731L8.69442 10.4091C8.97869 9.84265 8.81176 9.72425 8.72162 9.66132C8.70402 9.64905 8.64749 9.61972 8.50722 9.61972C8.25122 9.61972 7.95576 9.71839 7.95309 9.71945C7.89472 9.7395 7.83119 9.73868 7.77336 9.71713C7.71552 9.69558 7.66695 9.65463 7.63593 9.60127C7.60491 9.54792 7.59336 9.48545 7.60325 9.42453C7.61314 9.3636 7.64385 9.308 7.69016 9.26719C7.71789 9.24265 8.38189 8.66665 9.36802 8.66665C9.5396 8.66742 9.71071 8.68475 9.87896 8.71839C10.3488 8.81439 10.7131 9.08265 10.903 9.47359C11.1355 9.95145 11.0886 10.5621 10.7723 11.1936L10.239 12.2571C9.95416 12.8245 10.1206 12.9413 10.2102 13.0037C10.2283 13.0165 10.2854 13.0459 10.4267 13.0459Z"
          fill="white"/>
</svg>
