<svg viewBox="0 0 32 32" fill="none" xmlns="http://www.w3.org/2000/svg">
    <path d="M25.6933 7.1064C23.92 6.27974 22 5.67974 20 5.33307C19.9825 5.33251 19.965 5.3358 19.9489 5.34271C19.9328 5.34962 19.9183 5.35998 19.9067 5.37307C19.6667 5.81307 19.3867 6.3864 19.2 6.8264C17.0787 6.5064 14.9213 6.5064 12.8 6.8264C12.6133 6.37307 12.3333 5.81307 12.08 5.37307C12.0667 5.3464 12.0267 5.33307 11.9867 5.33307C9.98666 5.67974 8.07999 6.27974 6.29333 7.1064C6.27999 7.1064 6.26666 7.11974 6.25333 7.13307C2.62666 12.5597 1.62666 17.8397 2.11999 23.0664C2.11999 23.0931 2.13333 23.1197 2.15999 23.1331C4.55999 24.8931 6.86666 25.9597 9.14666 26.6664C9.18666 26.6797 9.22666 26.6664 9.23999 26.6397C9.77333 25.9064 10.2533 25.1331 10.6667 24.3197C10.6933 24.2664 10.6667 24.2131 10.6133 24.1997C9.85333 23.9064 9.13333 23.5597 8.42666 23.1597C8.37333 23.1331 8.37333 23.0531 8.41333 23.0131C8.55999 22.9064 8.70666 22.7864 8.85333 22.6797C8.87999 22.6531 8.91999 22.6531 8.94666 22.6664C13.5333 24.7597 18.48 24.7597 23.0133 22.6664C23.04 22.6531 23.08 22.6531 23.1067 22.6797C23.2533 22.7997 23.4 22.9064 23.5467 23.0264C23.6 23.0664 23.6 23.1464 23.5333 23.1731C22.84 23.5864 22.1067 23.9197 21.3467 24.2131C21.2933 24.2264 21.28 24.2931 21.2933 24.3331C21.72 25.1464 22.2 25.9197 22.72 26.6531C22.76 26.6664 22.8 26.6797 22.84 26.6664C25.1333 25.9597 27.44 24.8931 29.84 23.1331C29.8667 23.1197 29.88 23.0931 29.88 23.0664C30.4667 17.0264 28.9067 11.7864 25.7467 7.13307C25.7333 7.11974 25.72 7.1064 25.6933 7.1064ZM11.36 19.8797C9.98666 19.8797 8.83999 18.6131 8.83999 17.0531C8.83999 15.4931 9.95999 14.2264 11.36 14.2264C12.7733 14.2264 13.8933 15.5064 13.88 17.0531C13.88 18.6131 12.76 19.8797 11.36 19.8797ZM20.6533 19.8797C19.28 19.8797 18.1333 18.6131 18.1333 17.0531C18.1333 15.4931 19.2533 14.2264 20.6533 14.2264C22.0667 14.2264 23.1867 15.5064 23.1733 17.0531C23.1733 18.6131 22.0667 19.8797 20.6533 19.8797Z"
          fill="white" fill-opacity="0.6"/>
</svg>
