<svg width="16" height="16" viewBox="0 0 16 16" fill="none" xmlns="http://www.w3.org/2000/svg">
<path d="M4.75 2.00002C3.75544 2.00002 2.80161 2.39511 2.09835 3.09837C1.39509 3.80163 1 4.75546 1 5.75002V11.25C1 12.2446 1.39509 13.1984 2.09835 13.9017C2.80161 14.6049 3.75544 15 4.75 15H10.25C11.2446 15 12.1984 14.6049 12.9017 13.9017C13.6049 13.1984 14 12.2446 14 11.25V8.00002C14 7.80111 13.921 7.61034 13.7803 7.46969C13.6397 7.32904 13.4489 7.25002 13.25 7.25002C13.0511 7.25002 12.8603 7.32904 12.7197 7.46969C12.579 7.61034 12.5 7.80111 12.5 8.00002V11.25C12.5 12.49 11.5 13.5 10.25 13.5H4.75C3.51 13.5 2.5 12.5 2.5 11.25V5.75002C2.5 4.51002 3.5 3.50002 4.75 3.50002H7C7.19891 3.50002 7.38968 3.421 7.53033 3.28035C7.67098 3.1397 7.75 2.94893 7.75 2.75002C7.75 2.55111 7.67098 2.36034 7.53033 2.21969C7.38968 2.07904 7.19891 2.00002 7 2.00002H4.75ZM13.46 1.46002C13.3682 1.42467 13.268 1.4172 13.1719 1.43854C13.0758 1.45989 12.9882 1.5091 12.92 1.58002L11.78 2.72002L13.19 4.13002L14.33 3.00002C14.47 2.86002 14.53 2.65002 14.46 2.46002C14.3811 2.22785 14.2499 2.01693 14.0765 1.84354C13.9031 1.67015 13.6922 1.53893 13.46 1.46002Z" fill="white"/>
<path d="M12.1302 5.20003L10.7202 3.78003L6.52016 7.98003C5.76868 8.73491 5.25723 9.69518 5.05016 10.74C5.04409 10.7572 5.04282 10.7757 5.04648 10.7935C5.05014 10.8114 5.0586 10.8278 5.07095 10.8412C5.0833 10.8546 5.09907 10.8644 5.11655 10.8694C5.13403 10.8745 5.15257 10.8747 5.17016 10.87C6.21973 10.662 7.18385 10.1469 7.94016 9.39003L12.1302 5.20003Z" fill="white"/>
</svg>
