<svg viewBox="0 0 32 32" fill="none" xmlns="http://www.w3.org/2000/svg">
    <path d="M16 2.66699C14.249 2.66699 12.5152 3.01187 10.8975 3.68193C9.27984 4.35199 7.80998 5.33412 6.57187 6.57224C4.07138 9.07272 2.66663 12.4641 2.66663 16.0003C2.66663 21.8937 6.49329 26.8937 11.7866 28.667C12.4533 28.7737 12.6666 28.3603 12.6666 28.0003V25.747C8.97329 26.547 8.18663 23.9603 8.18663 23.9603C7.57329 22.4137 6.70663 22.0003 6.70663 22.0003C5.49329 21.1737 6.79996 21.2003 6.79996 21.2003C8.13329 21.2937 8.83996 22.5737 8.83996 22.5737C9.99996 24.6003 11.96 24.0003 12.72 23.6803C12.84 22.8137 13.1866 22.227 13.56 21.8937C10.6 21.5603 7.49329 20.4137 7.49329 15.3337C7.49329 13.8537 7.99996 12.667 8.86663 11.7203C8.73329 11.387 8.26663 10.0003 8.99996 8.20033C8.99996 8.20033 10.12 7.84033 12.6666 9.56033C13.72 9.26699 14.8666 9.12033 16 9.12033C17.1333 9.12033 18.28 9.26699 19.3333 9.56033C21.88 7.84033 23 8.20033 23 8.20033C23.7333 10.0003 23.2666 11.387 23.1333 11.7203C24 12.667 24.5066 13.8537 24.5066 15.3337C24.5066 20.427 21.3866 21.547 18.4133 21.8803C18.8933 22.2937 19.3333 23.107 19.3333 24.347V28.0003C19.3333 28.3603 19.5466 28.787 20.2266 28.667C25.52 26.8803 29.3333 21.8937 29.3333 16.0003C29.3333 14.2494 28.9884 12.5156 28.3184 10.8979C27.6483 9.2802 26.6662 7.81035 25.4281 6.57224C24.1899 5.33412 22.7201 4.35199 21.1024 3.68193C19.4847 3.01187 17.7509 2.66699 16 2.66699Z"
          fill="white" fill-opacity="0.6"/>
</svg>
