<svg width="28" height="28" viewBox="0 0 28 28" fill="none" xmlns="http://www.w3.org/2000/svg">
    <path d="M18.6864 2.33334H9.27142C7.43176 2.33551 5.66809 3.06734 4.36737 4.36829C3.06665 5.66923 2.3351 7.43302 2.33325 9.27268L2.33325 18.6877C2.33541 20.5273 3.06725 22.291 4.36819 23.5917C5.66914 24.8924 7.43293 25.624 9.27258 25.6258H18.6876C20.5272 25.6237 22.2909 24.8918 23.5916 23.5909C24.8924 22.29 25.6239 20.5262 25.6258 18.6865V9.27151C25.6236 7.43186 24.8918 5.66818 23.5908 4.36746C22.2899 3.06674 20.5261 2.3352 18.6864 2.33334ZM23.2831 18.6865C23.2831 19.2902 23.1642 19.8879 22.9332 20.4456C22.7022 21.0033 22.3636 21.51 21.9368 21.9368C21.5099 22.3637 21.0032 22.7023 20.4455 22.9333C19.8878 23.1643 19.2901 23.2832 18.6864 23.2832H9.27142C8.05251 23.2829 6.88363 22.7984 6.02184 21.9364C5.16005 21.0744 4.67592 19.9054 4.67592 18.6865V9.27151C4.67623 8.0526 5.16065 6.88372 6.02266 6.02193C6.88467 5.16014 8.05368 4.67601 9.27258 4.67601H18.6876C19.9065 4.67632 21.0754 5.16075 21.9372 6.02275C22.799 6.88476 23.2831 8.05377 23.2831 9.27268V18.6865Z"
          fill="currentColor"/>
    <path d="M13.9789 7.95551C12.3822 7.95797 10.8517 8.59342 9.72276 9.72255C8.59385 10.8517 7.9587 12.3823 7.95654 13.979C7.95839 15.5761 8.59357 17.1072 9.72276 18.2366C10.852 19.366 12.383 20.0015 13.98 20.0037C15.5773 20.0018 17.1086 19.3665 18.2381 18.237C19.3675 17.1076 20.0029 15.5763 20.0047 13.979C20.0022 12.3819 19.3665 10.851 18.2368 9.72206C17.1072 8.59309 15.5759 7.95822 13.9789 7.95667V7.95551ZM13.9789 17.661C13.0027 17.661 12.0664 17.2732 11.3761 16.5829C10.6858 15.8926 10.298 14.9564 10.298 13.9802C10.298 13.004 10.6858 12.0677 11.3761 11.3774C12.0664 10.6871 13.0027 10.2993 13.9789 10.2993C14.9551 10.2993 15.8913 10.6871 16.5816 11.3774C17.2719 12.0677 17.6597 13.004 17.6597 13.9802C17.6597 14.9564 17.2719 15.8926 16.5816 16.5829C15.8913 17.2732 14.9551 17.661 13.9789 17.661Z"
          fill="currentColor"/>
    <path d="M20.0152 9.44416C20.8122 9.44416 21.4584 8.79804 21.4584 8.001C21.4584 7.20396 20.8122 6.55783 20.0152 6.55783C19.2181 6.55783 18.572 7.20396 18.572 8.001C18.572 8.79804 19.2181 9.44416 20.0152 9.44416Z"
          fill="currentColor"/>
</svg>
