<svg width="40" height="40" viewBox="0 0 40 40" fill="none" xmlns="http://www.w3.org/2000/svg">
<rect width="40" height="40" rx="20" fill="#1475E6" fill-opacity="0.1"/>
<mask id="mask0_952_12364" style="mask-type:alpha" maskUnits="userSpaceOnUse" x="8" y="8" width="24" height="24">
<rect x="8" y="8" width="24" height="24" fill="#D9D9D9"/>
</mask>
<g mask="url(#mask0_952_12364)">
<path d="M26 29C26.1333 29 26.25 28.95 26.35 28.85C26.45 28.75 26.5 28.6333 26.5 28.5V26.5H28.5C28.6333 26.5 28.75 26.45 28.85 26.35C28.95 26.25 29 26.1333 29 26C29 25.8667 28.95 25.75 28.85 25.65C28.75 25.55 28.6333 25.5 28.5 25.5H26.5V23.5C26.5 23.3667 26.45 23.25 26.35 23.15C26.25 23.05 26.1333 23 26 23C25.8667 23 25.75 23.05 25.65 23.15C25.55 23.25 25.5 23.3667 25.5 23.5V25.5H23.5C23.3667 25.5 23.25 25.55 23.15 25.65C23.05 25.75 23 25.8667 23 26C23 26.1333 23.05 26.25 23.15 26.35C23.25 26.45 23.3667 26.5 23.5 26.5H25.5V28.5C25.5 28.6333 25.55 28.75 25.65 28.85C25.75 28.95 25.8667 29 26 29ZM26 31C24.6167 31 23.4375 30.5125 22.4625 29.5375C21.4875 28.5625 21 27.3833 21 26C21 24.6167 21.4875 23.4375 22.4625 22.4625C23.4375 21.4875 24.6167 21 26 21C27.3833 21 28.5625 21.4875 29.5375 22.4625C30.5125 23.4375 31 24.6167 31 26C31 27.3833 30.5125 28.5625 29.5375 29.5375C28.5625 30.5125 27.3833 31 26 31ZM18 15C17.7167 15 17.4792 14.9042 17.2875 14.7125C17.0958 14.5208 17 14.2833 17 14C17 13.7167 17.0958 13.4792 17.2875 13.2875C17.4792 13.0958 17.7167 13 18 13H28C28.2833 13 28.5208 13.0958 28.7125 13.2875C28.9042 13.4792 29 13.7167 29 14C29 14.2833 28.9042 14.5208 28.7125 14.7125C28.5208 14.9042 28.2833 15 28 15H18ZM13 28C12.45 28 11.9792 27.8042 11.5875 27.4125C11.1958 27.0208 11 26.55 11 26C11 25.45 11.1958 24.9792 11.5875 24.5875C11.9792 24.1958 12.45 24 13 24C13.55 24 14.0208 24.1958 14.4125 24.5875C14.8042 24.9792 15 25.45 15 26C15 26.55 14.8042 27.0208 14.4125 27.4125C14.0208 27.8042 13.55 28 13 28ZM13 22C12.45 22 11.9792 21.8042 11.5875 21.4125C11.1958 21.0208 11 20.55 11 20C11 19.45 11.1958 18.9792 11.5875 18.5875C11.9792 18.1958 12.45 18 13 18C13.55 18 14.0208 18.1958 14.4125 18.5875C14.8042 18.9792 15 19.45 15 20C15 20.55 14.8042 21.0208 14.4125 21.4125C14.0208 21.8042 13.55 22 13 22ZM13 16C12.45 16 11.9792 15.8042 11.5875 15.4125C11.1958 15.0208 11 14.55 11 14C11 13.45 11.1958 12.9792 11.5875 12.5875C11.9792 12.1958 12.45 12 13 12C13.55 12 14.0208 12.1958 14.4125 12.5875C14.8042 12.9792 15 13.45 15 14C15 14.55 14.8042 15.0208 14.4125 15.4125C14.0208 15.8042 13.55 16 13 16ZM18 21C17.7167 21 17.4792 20.9042 17.2875 20.7125C17.0958 20.5208 17 20.2833 17 20C17 19.7167 17.0958 19.4792 17.2875 19.2875C17.4792 19.0958 17.7167 19 18 19H20C20.2833 19 20.5208 19.0958 20.7125 19.2875C20.9042 19.4792 21 19.7167 21 20C21 20.2833 20.9042 20.5208 20.7125 20.7125C20.5208 20.9042 20.2833 21 20 21H18ZM18 27C17.7167 27 17.4792 26.9042 17.2875 26.7125C17.0958 26.5208 17 26.2833 17 26C17 25.7167 17.0958 25.4792 17.2875 25.2875C17.4792 25.0958 17.7167 25 18 25C18.2833 25 18.5208 25.0958 18.7125 25.2875C18.9042 25.4792 19 25.7167 19 26C19 26.2833 18.9042 26.5208 18.7125 26.7125C18.5208 26.9042 18.2833 27 18 27Z" fill="#60A5FA"/>
</g>
</svg>
