<svg width="20" height="20" viewBox="0 0 20 20" fill="none" xmlns="http://www.w3.org/2000/svg">
<g opacity="0.5">
<path fill-rule="evenodd" clip-rule="evenodd" d="M10.0002 2.5C11.1052 2.5 12.165 2.93899 12.9464 3.72039C13.7278 4.50179 14.1668 5.5616 14.1668 6.66667V8.3375C14.8085 8.35 15.2052 8.39583 15.5293 8.56083C15.9211 8.76053 16.2396 9.07906 16.4393 9.47083C16.6668 9.91667 16.6668 10.5 16.6668 11.6667V14.1667C16.6668 15.3333 16.6668 15.9167 16.4393 16.3625C16.2396 16.7543 15.9211 17.0728 15.5293 17.2725C15.0835 17.5 14.5002 17.5 13.3335 17.5H6.66683C5.50016 17.5 4.91683 17.5 4.471 17.2725C4.07892 17.0729 3.76008 16.7544 3.56016 16.3625C3.3335 15.9167 3.3335 15.3333 3.3335 14.1667V11.6667C3.3335 10.5 3.3335 9.91667 3.56016 9.47083C3.76008 9.07894 4.07892 8.76039 4.471 8.56083C4.79516 8.395 5.19183 8.35 5.8335 8.3375V6.66667C5.8335 5.5616 6.27248 4.50179 7.05388 3.72039C7.83529 2.93899 8.89509 2.5 10.0002 2.5ZM12.5002 6.66667V8.33333H7.50016V6.66667C7.50016 6.00363 7.76355 5.36774 8.2324 4.8989C8.70124 4.43006 9.33712 4.16667 10.0002 4.16667C10.6632 4.16667 11.2991 4.43006 11.7679 4.8989C12.2368 5.36774 12.5002 6.00363 12.5002 6.66667Z" fill="white"/>
</g>
</svg>
