<svg width="16" height="16" viewBox="0 0 16 16" fill="none" xmlns="http://www.w3.org/2000/svg">
    <path d="M3.5 2C2.67157 2 2 2.67157 2 3.5V12.5C2 13.3284 2.67157 14 3.5 14H8.75C9.57843 14 10.25 13.3284 10.25 12.5V12C10.25 11.7239 10.0261 11.5 9.75 11.5C9.47386 11.5 9.25 11.7239 9.25 12V12.5C9.25 12.7761 9.02614 13 8.75 13H3.5C3.22386 13 3 12.7761 3 12.5V3.5C3 3.22386 3.22386 3 3.5 3H8.75C9.02614 3 9.25 3.22386 9.25 3.5V4C9.25 4.27614 9.47386 4.5 9.75 4.5C10.0261 4.5 10.25 4.27614 10.25 4V3.5C10.25 2.67157 9.57843 2 8.75 2H3.5Z"
          fill="white"/>
    <path d="M7.33219 6.37371C7.53858 6.19025 7.55717 5.87421 7.37371 5.66782C7.19025 5.46143 6.87422 5.44284 6.66782 5.6263L3.99741 8L6.66782 10.3737C6.87422 10.5572 7.19025 10.5386 7.37371 10.3322C7.55717 10.1258 7.53858 9.80976 7.33219 9.6263L6.06511 8.5H12.5C12.7761 8.5 13 8.27615 13 8C13 7.72386 12.7761 7.5 12.5 7.5H6.06511L7.33219 6.37371Z"
          fill="white"/>
</svg>
