<svg width="16" height="16" viewBox="0 0 16 16" fill="none" xmlns="http://www.w3.org/2000/svg">
<path fill-rule="evenodd" clip-rule="evenodd" d="M11.5607 2.85365C10.9749 2.26786 10.0251 2.26786 9.43934 2.85365L3.56299 8.73L2.68377 11.3676C2.48833 11.954 3.04614 12.5118 3.63246 12.3163L6.27009 11.4371L12.1464 5.56075C12.7322 4.97497 12.7322 4.02522 12.1464 3.43943L11.5607 2.85365ZM10.1464 3.56075C10.3417 3.36549 10.6583 3.36549 10.8536 3.56075L11.4393 4.14654C11.6346 4.3418 11.6346 4.65838 11.4393 4.85365L11 5.29299L9.70711 4.00009L10.1464 3.56075ZM9 4.7072L10.2929 6.00009L6 10.293L4.70711 9.00009L9 4.7072ZM4.21851 9.92571L5.07439 10.7816L3.79057 11.2095L4.21851 9.92571Z" fill="#ABABAB"/>
<path d="M3 12.5001C2.72386 12.5001 2.5 12.7239 2.5 13.0001C2.5 13.2762 2.72386 13.5001 3 13.5001L13 13.5001C13.2761 13.5001 13.5 13.2762 13.5 13.0001C13.5 12.724 13.2761 12.5001 13 12.5001L3 12.5001Z" fill="#ABABAB"/>
</svg>
