<svg fill="#fff" version="1.1" id="svg" xmlns="http://www.w3.org/2000/svg" xmlns:xlink="http://www.w3.org/1999/xlink" viewBox="0 0 100 100" enable-background="new 0 0 100 100" xml:space="preserve">
<g>
	<path d="M38.763,31.427c-0.277-0.139-0.832-0.21-1.141-0.21c-3.183,0-6.122,2.586-6.122,5.646v27.352
		c0,3.062,2.939,5.648,6.122,5.648c0.308,0,0.737-0.071,1.013-0.208l25.82-12.767c3.156-1.57,4.788-3.707,4.788-6.35
		c0-1.816-0.832-4.393-4.854-6.348L38.763,31.427z M65.274,50.539c0,0.412,0,1.505-2.536,2.768l-25.5,12.515
		c-0.807-0.175-1.738-0.873-1.738-1.606V36.863c0-0.731,0.93-1.429,1.736-1.604L62.514,47.78
		C63.717,48.364,65.274,49.317,65.274,50.539z"/>
</g>
</svg>
