<svg width="25" height="24" viewBox="0 0 25 24" fill="none" xmlns="http://www.w3.org/2000/svg">
    <path d="M12.2416 17.4259C12.4005 17.33 12.5995 17.33 12.7584 17.4259L17.6655 20.3877C18.0442 20.6162 18.5113 20.2767 18.4108 19.846L17.1086 14.2639C17.0664 14.0832 17.1278 13.8939 17.2681 13.7724L21.606 10.0145C21.9401 9.72506 21.7619 9.17635 21.3216 9.13838L15.6097 8.64585C15.4253 8.62994 15.2648 8.51345 15.1924 8.34306L12.9603 3.0843C12.7878 2.67812 12.2122 2.67812 12.0397 3.0843L9.80755 8.34306C9.73523 8.51345 9.57468 8.62994 9.39026 8.64585L3.67692 9.13851C3.2368 9.17646 3.05852 9.72473 3.39214 10.0143L7.72266 13.7727C7.86252 13.8941 7.92384 14.0828 7.88201 14.2632L6.58715 19.8478C6.48732 20.2784 6.95421 20.6172 7.33259 20.3888L12.2416 17.4259Z"
          fill="#D4AD4A"/>
</svg>
