<svg viewBox="0 0 25 24" fill="none" xmlns="http://www.w3.org/2000/svg">
    <path d="M12.7584 15.546C12.5995 15.4501 12.4005 15.4501 12.2416 15.546L9.75194 17.0491C9.37367 17.2774 8.90681 16.9388 9.00639 16.5083L9.66218 13.6732C9.70391 13.4928 9.64254 13.3041 9.50268 13.1828L7.3048 11.2762C6.97075 10.9864 7.14969 10.4375 7.59035 10.4003L10.4893 10.1554C10.6742 10.1398 10.8353 10.023 10.9076 9.85207L12.0395 7.17785C12.2117 6.77104 12.7883 6.77104 12.9605 7.17785L14.0924 9.85207C14.1647 10.023 14.3258 10.1398 14.5107 10.1554L17.4097 10.4003C17.8503 10.4375 18.0293 10.9864 17.6952 11.2762L15.4973 13.1828C15.3575 13.3041 15.2961 13.4928 15.3378 13.6732L15.9936 16.5083C16.0932 16.9388 15.6263 17.2774 15.2481 17.0491L12.7584 15.546ZM21.6043 10.0159C21.9386 9.72634 21.7599 9.17721 21.3192 9.13982L15.6104 8.65549C15.4256 8.63981 15.2647 8.52314 15.1923 8.35239L12.9604 3.08619C12.7881 2.67967 12.2119 2.67967 12.0396 3.08618L9.80766 8.35239C9.73529 8.52314 9.57436 8.63981 9.38957 8.65549L3.67932 9.13995C3.23882 9.17732 3.05999 9.72601 3.39386 10.0158L7.72266 13.7727C7.86252 13.8941 7.92384 14.0828 7.88201 14.2632L6.58715 19.8478C6.48732 20.2784 6.95421 20.6172 7.33259 20.3888L12.2416 17.4259C12.4005 17.33 12.5995 17.33 12.7584 17.4259L17.6655 20.3877C18.0442 20.6162 18.5113 20.2767 18.4108 19.846L17.1086 14.2639C17.0664 14.0832 17.1278 13.8939 17.2681 13.7724L21.6043 10.0159Z"
          fill="#9F9F9F"/>
</svg>
