<svg width="40" height="40" viewBox="0 0 40 40" fill="none" xmlns="http://www.w3.org/2000/svg">
<rect width="40" height="40" rx="20" fill="#1475E6" fill-opacity="0.1"/>
<mask id="mask0_952_12363" style="mask-type:alpha" maskUnits="userSpaceOnUse" x="8" y="8" width="24" height="24">
<rect x="8" y="8" width="24" height="24" fill="#D9D9D9"/>
</mask>
<g mask="url(#mask0_952_12363)">
<path d="M22.5 23C23.05 23 23.5208 22.8042 23.9125 22.4125C24.3042 22.0208 24.5 21.55 24.5 21C24.5 20.45 24.3042 19.9792 23.9125 19.5875C23.5208 19.1958 23.05 19 22.5 19C22.25 19 22.0125 19.0458 21.7875 19.1375C21.5625 19.2292 21.3583 19.35 21.175 19.5L18.5 18.15V17.85L21.175 16.5C21.3583 16.65 21.5625 16.7708 21.7875 16.8625C22.0125 16.9542 22.25 17 22.5 17C23.05 17 23.5208 16.8042 23.9125 16.4125C24.3042 16.0208 24.5 15.55 24.5 15C24.5 14.45 24.3042 13.9792 23.9125 13.5875C23.5208 13.1958 23.05 13 22.5 13C21.95 13 21.4792 13.1958 21.0875 13.5875C20.6958 13.9792 20.5 14.45 20.5 15V15.15L17.825 16.5C17.6417 16.35 17.4375 16.2292 17.2125 16.1375C16.9875 16.0458 16.75 16 16.5 16C15.95 16 15.4792 16.1958 15.0875 16.5875C14.6958 16.9792 14.5 17.45 14.5 18C14.5 18.55 14.6958 19.0208 15.0875 19.4125C15.4792 19.8042 15.95 20 16.5 20C16.75 20 16.9875 19.9542 17.2125 19.8625C17.4375 19.7708 17.6417 19.65 17.825 19.5L20.5 20.85V21C20.5 21.55 20.6958 22.0208 21.0875 22.4125C21.4792 22.8042 21.95 23 22.5 23ZM14 26L11.7 28.3C11.3833 28.6167 11.0208 28.6875 10.6125 28.5125C10.2042 28.3375 10 28.025 10 27.575V12C10 11.45 10.1958 10.9792 10.5875 10.5875C10.9792 10.1958 11.45 10 12 10H28C28.55 10 29.0208 10.1958 29.4125 10.5875C29.8042 10.9792 30 11.45 30 12V24C30 24.55 29.8042 25.0208 29.4125 25.4125C29.0208 25.8042 28.55 26 28 26H14ZM13.15 24H28V12H12V25.125L13.15 24Z" fill="#60A5FA"/>
</g>
</svg>
