<svg width="16" height="16" viewBox="0 0 16 16" fill="none" xmlns="http://www.w3.org/2000/svg">
    <path fill-rule="evenodd" clip-rule="evenodd"
          d="M7.99993 2.99998C8.16059 2.59318 8.70056 1.98087 9.51688 2.19365C10.0486 2.33224 10.5514 2.54179 11.0145 2.81132C11.7697 3.25089 11.6914 4.09776 11.4997 4.49998C11.9019 4.30826 12.749 4.23019 13.1886 4.9854C13.4581 5.44848 13.6677 5.9513 13.8063 6.48303C14.019 7.29935 13.4069 7.83897 13.0001 7.99963C13.4069 8.16028 14.019 8.70059 13.8063 9.51692C13.7158 9.86396 13.5951 10.1987 13.4472 10.5182C13.225 10.9983 12.7842 11.1943 12.4389 11.2326C12.1086 11.2693 11.7716 11.1834 11.4999 10.9999C11.7227 11.2406 11.8587 11.5608 11.8727 11.8927C11.8874 12.2392 11.7612 12.7046 11.321 12.9977C10.7763 13.3602 10.1683 13.6365 9.51688 13.8063C8.70058 14.0191 8.16095 13.407 8.00028 13.0001C7.83961 13.407 7.29928 14.0191 6.48298 13.8063C5.83153 13.6365 5.22357 13.3602 4.6789 12.9977C4.23862 12.7046 4.11245 12.2392 4.12711 11.8927C4.14116 11.5608 4.27714 11.2407 4.49993 11C4.22823 11.1835 3.89124 11.2693 3.56098 11.2326C3.2157 11.1943 2.77488 10.9983 2.55264 10.5182C2.40475 10.1987 2.28405 9.86396 2.19359 9.51692C1.98081 8.70059 2.59298 8.16099 2.99977 8.00033C2.59296 7.83967 1.98082 7.29935 2.1936 6.48303C2.33219 5.9513 2.54174 5.44848 2.81127 4.9854C3.25083 4.23019 4.09771 4.30852 4.49993 4.50024C4.30819 4.09804 4.23014 3.25089 4.98535 2.81132C5.44843 2.54179 5.95125 2.33224 6.48298 2.19365C7.2993 1.98087 7.83927 2.59318 7.99993 2.99998ZM7.06949 3.36715C7.0151 3.22944 6.87848 3.12397 6.7352 3.16132C6.29277 3.27664 5.87418 3.45104 5.48839 3.67559C5.35615 3.75255 5.33697 3.93163 5.40289 4.06971C5.4651 4.20003 5.49993 4.34594 5.49993 4.49998C5.49993 5.05226 5.05221 5.49998 4.49993 5.49998C4.34589 5.49998 4.19998 5.46515 4.06966 5.40294C3.93158 5.33702 3.7525 5.3562 3.67554 5.48844C3.45099 5.87424 3.27659 6.29282 3.16126 6.73526C3.12392 6.87853 3.22938 7.01515 3.3671 7.06954C3.73772 7.21591 3.99993 7.57733 3.99993 7.99998C3.99993 8.42263 3.73772 8.78405 3.3671 8.93042C3.22938 8.98481 3.12392 9.12142 3.16126 9.2647C3.23654 9.5535 3.33698 9.83213 3.46012 10.0981C3.53959 10.2698 3.78361 10.2771 3.94029 10.1711C4.1 10.0631 4.29259 9.99998 4.49993 9.99998C5.05221 9.99998 5.49993 10.4477 5.49993 11C5.49993 11.2622 5.39902 11.5008 5.23393 11.6791C5.10542 11.818 5.07552 12.0604 5.233 12.1652C5.68699 12.4674 6.19319 12.6974 6.7352 12.8386C6.87848 12.876 7.0151 12.7705 7.06949 12.6328C7.21586 12.2622 7.57727 12 7.99993 12C8.42258 12 8.78399 12.2622 8.93037 12.6328C8.98476 12.7705 9.12138 12.876 9.26466 12.8386C9.80667 12.6974 10.3129 12.4674 10.7669 12.1652C10.9243 12.0604 10.8944 11.818 10.7659 11.6791C10.6008 11.5008 10.4999 11.2622 10.4999 11C10.4999 10.4477 10.9476 9.99998 11.4999 9.99998C11.7073 9.99998 11.8999 10.0631 12.0596 10.1711C12.2162 10.2771 12.4603 10.2698 12.5397 10.0981C12.6629 9.83213 12.7633 9.5535 12.8386 9.2647C12.8759 9.12142 12.7705 8.98481 12.6328 8.93042C12.2621 8.78405 11.9999 8.42263 11.9999 7.99998C11.9999 7.57733 12.2621 7.21591 12.6328 7.06954C12.7705 7.01515 12.8759 6.87853 12.8386 6.73526C12.7233 6.29282 12.5489 5.87424 12.3243 5.48844C12.2474 5.3562 12.0683 5.33702 11.9302 5.40294C11.7999 5.46515 11.654 5.49998 11.4999 5.49998C10.9476 5.49998 10.4999 5.05226 10.4999 4.49998C10.4999 4.34594 10.5348 4.20003 10.597 4.06971C10.6629 3.93163 10.6437 3.75255 10.5115 3.67559C10.1257 3.45104 9.70709 3.27664 9.26465 3.16132C9.12137 3.12397 8.98476 3.22944 8.93037 3.36715C8.784 3.73777 8.42258 3.99998 7.99993 3.99998C7.57727 3.99998 7.21586 3.73777 7.06949 3.36715Z"
          fill="white"/>
    <path fill-rule="evenodd" clip-rule="evenodd"
          d="M10.9999 7.99998C10.9999 9.65683 9.65678 11 7.99993 11C6.34307 11 4.99993 9.65683 4.99993 7.99998C4.99993 6.34313 6.34307 4.99998 7.99993 4.99998C9.65678 4.99998 10.9999 6.34313 10.9999 7.99998ZM7.99993 9.99998C9.1045 9.99998 9.99993 9.10455 9.99993 7.99998C9.99993 6.89541 9.1045 5.99998 7.99993 5.99998C6.89536 5.99998 5.99993 6.89541 5.99993 7.99998C5.99993 9.10455 6.89536 9.99998 7.99993 9.99998Z"
          fill="white"/>
</svg>
