<svg width="20" height="20" viewBox="0 0 20 20" fill="none" xmlns="http://www.w3.org/2000/svg">
    <path fill-rule="evenodd" clip-rule="evenodd"
          d="M15 7.5C16.3807 7.5 17.5 6.38071 17.5 5C17.5 3.61929 16.3807 2.5 15 2.5C13.6193 2.5 12.5 3.61929 12.5 5C12.5 5.27926 12.5458 5.54783 12.6303 5.7986L7.06031 8.58357C6.60949 7.92906 5.85485 7.5 5 7.5C3.61929 7.5 2.5 8.61929 2.5 10C2.5 11.3807 3.61929 12.5 5 12.5C5.75246 12.5 6.42727 12.1676 6.88559 11.6416L12.5549 14.4762C12.5189 14.6451 12.5 14.8204 12.5 15C12.5 16.3807 13.6193 17.5 15 17.5C16.3807 17.5 17.5 16.3807 17.5 15C17.5 13.6193 16.3807 12.5 15 12.5C14.2475 12.5 13.5727 12.8324 13.1144 13.3584L7.44505 10.5237C7.48105 10.3548 7.5 10.1796 7.5 10C7.5 9.92131 7.49636 9.84348 7.48925 9.76665L13.3199 6.85132C13.7638 7.25438 14.3532 7.5 15 7.5ZM15 6.25C15.6904 6.25 16.25 5.69035 16.25 5C16.25 4.30964 15.6904 3.75 15 3.75C14.3096 3.75 13.75 4.30964 13.75 5C13.75 5.69035 14.3096 6.25 15 6.25ZM15 16.25C15.6904 16.25 16.25 15.6904 16.25 15C16.25 14.3096 15.6904 13.75 15 13.75C14.3096 13.75 13.75 14.3096 13.75 15C13.75 15.6904 14.3096 16.25 15 16.25ZM6.25 10C6.25 10.6904 5.69035 11.25 5 11.25C4.30964 11.25 3.75 10.6904 3.75 10C3.75 9.30964 4.30964 8.75 5 8.75C5.69035 8.75 6.25 9.30964 6.25 10Z"
          fill="currentColor"/>
</svg>
