<svg width="20" height="20" viewBox="0 0 20 20" fill="none" xmlns="http://www.w3.org/2000/svg">
<path d="M14.9165 14.4917C14.6998 13.825 14.0748 13.3334 13.3332 13.3334H12.4998V10.8334C12.4998 10.6123 12.412 10.4004 12.2558 10.2441C12.0995 10.0878 11.8875 10 11.6665 10H6.6665V8.33335H8.33317C8.55418 8.33335 8.76615 8.24556 8.92243 8.08928C9.07871 7.933 9.1665 7.72103 9.1665 7.50002V5.83335H10.8332C11.2752 5.83335 11.6991 5.65776 12.0117 5.3452C12.3242 5.03264 12.4998 4.60871 12.4998 4.16669V3.82502C13.4969 4.22699 14.3817 4.86458 15.0785 5.68322C15.7753 6.50185 16.2634 7.47714 16.501 8.52561C16.7385 9.57408 16.7184 10.6645 16.4425 11.7035C16.1666 12.7425 15.643 13.6992 14.9165 14.4917ZM9.1665 16.6084C5.87484 16.2 3.33317 13.4 3.33317 10C3.33317 9.48335 3.39984 8.98335 3.50817 8.50835L7.49984 12.5V13.3334C7.49984 13.7754 7.67543 14.1993 7.98799 14.5119C8.30055 14.8244 8.72448 15 9.1665 15M9.99984 1.66669C8.90549 1.66669 7.82186 1.88224 6.81081 2.30102C5.79976 2.71981 4.8811 3.33364 4.10728 4.10746C2.54448 5.67027 1.6665 7.78988 1.6665 10C1.6665 12.2102 2.54448 14.3298 4.10728 15.8926C4.8811 16.6664 5.79976 17.2802 6.81081 17.699C7.82186 18.1178 8.90549 18.3334 9.99984 18.3334C12.21 18.3334 14.3296 17.4554 15.8924 15.8926C17.4552 14.3298 18.3332 12.2102 18.3332 10C18.3332 8.90567 18.1176 7.82204 17.6988 6.81099C17.28 5.79994 16.6662 4.88129 15.8924 4.10746C15.1186 3.33364 14.1999 2.71981 13.1889 2.30102C12.1778 1.88224 11.0942 1.66669 9.99984 1.66669Z" fill="white" fill-opacity="0.6"/>
</svg>
