<svg width="16" height="16" viewBox="0 0 16 16" fill="none" xmlns="http://www.w3.org/2000/svg">
    <path d="M7.9997 12.053L5.09126 13.8875C4.96278 13.9731 4.82845 14.0098 4.68829 13.9975C4.54812 13.9853 4.42548 13.9364 4.32035 13.8508C4.21523 13.7652 4.13347 13.6583 4.07506 13.5301C4.01666 13.4019 4.00498 13.2581 4.04002 13.0986L4.81093 9.63147L2.23539 7.30167C2.11859 7.1916 2.0457 7.06612 2.01673 6.92523C1.98777 6.78434 1.99641 6.64688 2.04266 6.51284C2.08892 6.3788 2.159 6.26873 2.25291 6.18263C2.34682 6.09653 2.47531 6.0415 2.63837 6.01753L6.03738 5.70566L7.35144 2.44028C7.40984 2.29352 7.50048 2.18345 7.62336 2.11007C7.74624 2.03669 7.87168 2 7.9997 2C8.12772 2 8.25317 2.03669 8.37605 2.11007C8.49892 2.18345 8.58956 2.29352 8.64797 2.44028L9.96202 5.70566L13.361 6.01753C13.5246 6.04199 13.653 6.09702 13.7465 6.18263C13.8399 6.26824 13.91 6.37831 13.9567 6.51284C14.0035 6.64737 14.0123 6.78508 13.9834 6.92596C13.9544 7.06685 13.8813 7.19209 13.764 7.30167L11.1885 9.63147L11.9594 13.0986C11.9944 13.2576 11.9827 13.4015 11.9243 13.5301C11.8659 13.6588 11.7842 13.7657 11.679 13.8508C11.5739 13.9359 11.4513 13.9848 11.3111 13.9975C11.1709 14.0103 11.0366 13.9736 10.9081 13.8875L7.9997 12.053Z"
          fill="currentColor"/>
</svg>
