<svg width="84" height="12" viewBox="0 0 84 12" fill="none" xmlns="http://www.w3.org/2000/svg">
<path d="M58.9401 11.438H78.5714C79.2843 11.438 79.9902 11.2967 80.6488 11.0221C81.3075 10.7475 81.9059 10.345 82.41 9.83757C82.9141 9.33015 83.3139 8.72776 83.5868 8.06479C83.8596 7.40182 84 6.69126 84 5.97366C84.0012 5.25529 83.8617 4.54373 83.5894 3.87968C83.3171 3.21564 82.9175 2.61216 82.4133 2.10376C81.909 1.59536 81.3102 1.19203 80.651 0.916837C79.9917 0.641646 79.2851 0.499999 78.5714 0.5L58.9401 0.5C58.2264 0.499999 57.5198 0.641646 56.8605 0.916837C56.2013 1.19203 55.6025 1.59536 55.0982 2.10376C54.594 2.61216 54.1944 3.21564 53.9221 3.87968C53.6498 4.54373 53.5103 5.25529 53.5115 5.97366C53.5115 7.42291 54.0835 8.8128 55.1015 9.83757C56.1196 10.8623 57.5003 11.438 58.9401 11.438ZM3.10292 11.4535H5.49923V2.63999H8.60215V0.5H0V2.6338H3.10292V11.4535ZM11.7358 11.4535H14.1321V3.05128H14.1628L16.9124 11.4473H18.7558L21.5975 3.05128H21.6283V11.4473H24.0246V0.5H20.4147L17.8955 7.6436H17.8648L15.361 0.5H11.7358V11.4535ZM27.3856 0.53711H30.98C31.8169 0.538404 32.6505 0.64225 33.4624 0.846356C34.2017 1.02292 34.8985 1.34678 35.5115 1.79884C36.1044 2.24758 36.5817 2.83298 36.9032 3.50588C37.2667 4.30532 37.4423 5.17835 37.4163 6.05716C37.4329 6.86677 37.2626 7.66921 36.9186 8.40125C36.5983 9.05999 36.1391 9.64044 35.573 10.1021C34.9935 10.5698 34.3317 10.9233 33.6221 11.1443C32.8721 11.384 32.0895 11.504 31.3026 11.4999H27.3856V0.53711ZM29.7819 9.25786H31.0107C31.5276 9.26141 32.0431 9.20433 32.5468 9.08778C32.9963 8.99595 33.4214 8.8094 33.7942 8.54041C34.1499 8.2694 34.4329 7.91332 34.6175 7.50443C34.8332 7.00982 34.9381 6.47347 34.9247 5.93346C34.9339 5.4496 34.8286 4.97049 34.6175 4.53567C34.4259 4.15033 34.1496 3.81401 33.8095 3.55226C33.4561 3.28806 33.0572 3.092 32.6329 2.97397C32.1649 2.84225 31.681 2.77668 31.1951 2.77915H29.7819V9.25786ZM40.8879 0.53711H44.9432C45.4191 0.537343 45.8944 0.571445 46.3656 0.639161C46.8125 0.697442 47.246 0.833473 47.6467 1.04118C48.021 1.23667 48.3385 1.52648 48.5683 1.88233C48.8233 2.31658 48.9461 2.81653 48.9217 3.32033C48.9427 3.88133 48.7604 4.4309 48.4086 4.86656C48.0496 5.28514 47.5763 5.58838 47.0476 5.73864V5.75719C47.3878 5.80608 47.7178 5.91054 48.0246 6.06644C48.3078 6.20963 48.5629 6.40349 48.7773 6.63854C48.9896 6.87393 49.1535 7.1493 49.2596 7.44877C49.374 7.76587 49.4312 8.101 49.4286 8.43836C49.447 8.94648 49.319 9.44912 49.0599 9.88563C48.8189 10.2656 48.4927 10.5834 48.1075 10.8134C47.7026 11.0581 47.2588 11.2307 46.7957 11.3236C46.3181 11.4267 45.831 11.4785 45.3425 11.4783H40.8879V0.53711ZM43.2842 4.91295H45.02C45.204 4.91396 45.3876 4.8932 45.5668 4.8511C45.7382 4.81363 45.9016 4.74555 46.0491 4.65009C46.1931 4.55663 46.3123 4.42926 46.3963 4.27899C46.4863 4.10776 46.5308 3.916 46.5253 3.72235C46.5352 3.52554 46.4883 3.33006 46.3902 3.15952C46.2948 3.01339 46.165 2.89333 46.0123 2.81007C45.8411 2.72355 45.6577 2.6641 45.4685 2.6338C45.2812 2.59735 45.0909 2.57871 44.9001 2.57814H43.2719L43.2842 4.91295ZM43.2842 9.44341H45.4347C45.6238 9.44392 45.8124 9.42317 45.9969 9.38156C46.1803 9.34379 46.3546 9.27025 46.51 9.16509C46.665 9.06212 46.7943 8.92454 46.8879 8.76307C46.9888 8.5787 47.0386 8.37044 47.0322 8.16004C47.0404 7.93807 46.9733 7.71993 46.8418 7.54154C46.7128 7.38104 46.5459 7.25559 46.3564 7.17663C46.1595 7.09408 45.953 7.03693 45.7419 7.00655C45.5333 6.97672 45.3229 6.96122 45.1121 6.96016H43.2995L43.2842 9.44341Z" fill="white" fill-opacity="0.5"/>
</svg>
