<svg width="40" height="40" viewBox="0 0 40 40" fill="none" xmlns="http://www.w3.org/2000/svg">
<rect width="40" height="40" rx="20" fill="#1475E6" fill-opacity="0.1"/>
<mask id="mask0_952_12362" style="mask-type:alpha" maskUnits="userSpaceOnUse" x="8" y="8" width="24" height="24">
<rect x="8" y="8" width="24" height="24" fill="#D9D9D9"/>
</mask>
<g mask="url(#mask0_952_12362)">
<path d="M14 28C13.7167 28 13.4792 27.9042 13.2875 27.7125C13.0958 27.5208 13 27.2833 13 27V21H12C11.7167 21 11.4792 20.9042 11.2875 20.7125C11.0958 20.5208 11 20.2833 11 20C11 19.7167 11.0958 19.4792 11.2875 19.2875C11.4792 19.0958 11.7167 19 12 19H16C16.2833 19 16.5208 19.0958 16.7125 19.2875C16.9042 19.4792 17 19.7167 17 20C17 20.2833 16.9042 20.5208 16.7125 20.7125C16.5208 20.9042 16.2833 21 16 21H15V27C15 27.2833 14.9042 27.5208 14.7125 27.7125C14.5208 27.9042 14.2833 28 14 28ZM14 17C13.7167 17 13.4792 16.9042 13.2875 16.7125C13.0958 16.5208 13 16.2833 13 16V13C13 12.7167 13.0958 12.4792 13.2875 12.2875C13.4792 12.0958 13.7167 12 14 12C14.2833 12 14.5208 12.0958 14.7125 12.2875C14.9042 12.4792 15 12.7167 15 13V16C15 16.2833 14.9042 16.5208 14.7125 16.7125C14.5208 16.9042 14.2833 17 14 17ZM18 17C17.7167 17 17.4792 16.9042 17.2875 16.7125C17.0958 16.5208 17 16.2833 17 16C17 15.7167 17.0958 15.4792 17.2875 15.2875C17.4792 15.0958 17.7167 15 18 15H19V13C19 12.7167 19.0958 12.4792 19.2875 12.2875C19.4792 12.0958 19.7167 12 20 12C20.2833 12 20.5208 12.0958 20.7125 12.2875C20.9042 12.4792 21 12.7167 21 13V15H22C22.2833 15 22.5208 15.0958 22.7125 15.2875C22.9042 15.4792 23 15.7167 23 16C23 16.2833 22.9042 16.5208 22.7125 16.7125C22.5208 16.9042 22.2833 17 22 17H18ZM20 28C19.7167 28 19.4792 27.9042 19.2875 27.7125C19.0958 27.5208 19 27.2833 19 27V20C19 19.7167 19.0958 19.4792 19.2875 19.2875C19.4792 19.0958 19.7167 19 20 19C20.2833 19 20.5208 19.0958 20.7125 19.2875C20.9042 19.4792 21 19.7167 21 20V27C21 27.2833 20.9042 27.5208 20.7125 27.7125C20.5208 27.9042 20.2833 28 20 28ZM26 28C25.7167 28 25.4792 27.9042 25.2875 27.7125C25.0958 27.5208 25 27.2833 25 27V25H24C23.7167 25 23.4792 24.9042 23.2875 24.7125C23.0958 24.5208 23 24.2833 23 24C23 23.7167 23.0958 23.4792 23.2875 23.2875C23.4792 23.0958 23.7167 23 24 23H28C28.2833 23 28.5208 23.0958 28.7125 23.2875C28.9042 23.4792 29 23.7167 29 24C29 24.2833 28.9042 24.5208 28.7125 24.7125C28.5208 24.9042 28.2833 25 28 25H27V27C27 27.2833 26.9042 27.5208 26.7125 27.7125C26.5208 27.9042 26.2833 28 26 28ZM26 21C25.7167 21 25.4792 20.9042 25.2875 20.7125C25.0958 20.5208 25 20.2833 25 20V13C25 12.7167 25.0958 12.4792 25.2875 12.2875C25.4792 12.0958 25.7167 12 26 12C26.2833 12 26.5208 12.0958 26.7125 12.2875C26.9042 12.4792 27 12.7167 27 13V20C27 20.2833 26.9042 20.5208 26.7125 20.7125C26.5208 20.9042 26.2833 21 26 21Z" fill="#60A5FA"/>
</g>
</svg>
