<svg width="19" height="18" viewBox="0 0 19 18" fill="none" xmlns="http://www.w3.org/2000/svg">
    <path fill-rule="evenodd" clip-rule="evenodd"
          d="M8.625 3.375C8.31434 3.375 8.0625 3.62684 8.0625 3.9375H11.4375C11.4375 3.62684 11.1857 3.375 10.875 3.375H8.625ZM12.5625 3.9375C12.5625 3.00552 11.807 2.25 10.875 2.25H8.625C7.69302 2.25 6.9375 3.00552 6.9375 3.9375H4.6875C4.37684 3.9375 4.125 4.18934 4.125 4.5C4.125 4.81066 4.37684 5.0625 4.6875 5.0625H14.8125C15.1232 5.0625 15.375 4.81066 15.375 4.5C15.375 4.18934 15.1232 3.9375 14.8125 3.9375H12.5625Z"
          fill="currentColor"/>
    <path fill-rule="evenodd" clip-rule="evenodd"
          d="M8.30777 7.87615C8.61779 7.85628 8.88522 8.09149 8.9051 8.40152L9.18635 12.789C9.20622 13.099 8.97101 13.3665 8.66098 13.3863C8.35096 13.4062 8.08353 13.171 8.06365 12.861L7.7824 8.47348C7.76253 8.16346 7.99774 7.89603 8.30777 7.87615Z"
          fill="currentColor"/>
    <path fill-rule="evenodd" clip-rule="evenodd"
          d="M11.1922 7.87615C10.8822 7.85628 10.6148 8.09149 10.5949 8.40152L10.3137 12.789C10.2938 13.099 10.529 13.3665 10.839 13.3863C11.149 13.4062 11.4165 13.171 11.4363 12.861L11.7176 8.47348C11.7375 8.16346 11.5023 7.89603 11.1922 7.87615Z"
          fill="currentColor"/>
    <path fill-rule="evenodd" clip-rule="evenodd"
          d="M4.73136 6.5734C4.66841 6.06981 5.06108 5.625 5.5686 5.625H13.9314C14.4389 5.625 14.8316 6.06981 14.7686 6.5734L13.8063 14.2718C13.7008 15.1163 12.9829 15.75 12.1319 15.75H7.36813C6.51708 15.75 5.79922 15.1163 5.69366 14.2718L4.73136 6.5734ZM5.88719 6.75L6.80997 14.1323C6.84516 14.4138 7.08445 14.625 7.36813 14.625H12.1319C12.4156 14.625 12.6548 14.4138 12.69 14.1323L13.6128 6.75H5.88719Z"
          fill="currentColor"/>
</svg>
