<svg width="28" height="28" viewBox="0 0 28 28" fill="none" xmlns="http://www.w3.org/2000/svg">
    <path d="M14.0765 4.9985H14.21C15.443 5.003 21.6905 5.048 23.375 5.501C23.8842 5.63926 24.3483 5.90874 24.7207 6.28252C25.0932 6.6563 25.361 7.12128 25.4975 7.631C25.649 8.201 25.7555 8.95551 25.8275 9.734L25.8425 9.89001L25.8755 10.28L25.8875 10.436C25.985 11.807 25.997 13.091 25.9985 13.3715V13.484C25.997 13.775 25.9835 15.146 25.8755 16.574L25.8635 16.7315L25.85 16.8875C25.775 17.7455 25.664 18.5975 25.4975 19.2245C25.361 19.7342 25.0932 20.1992 24.7207 20.573C24.3483 20.9468 23.8842 21.2163 23.375 21.3545C21.635 21.8225 15.0215 21.8555 14.105 21.857H13.892C13.4285 21.857 11.5115 21.848 9.5015 21.779L9.2465 21.77L9.116 21.764L8.8595 21.7535L8.603 21.743C6.938 21.6695 5.3525 21.551 4.622 21.353C4.11294 21.2149 3.64902 20.9456 3.27658 20.5721C2.90413 20.1986 2.63618 19.734 2.4995 19.2245C2.333 18.599 2.222 17.7455 2.147 16.8875L2.135 16.73L2.123 16.574C2.04855 15.5576 2.00752 14.5391 2 13.52L2 13.3355C2.003 13.013 2.015 11.8985 2.096 10.6685L2.1065 10.514L2.111 10.436L2.123 10.28L2.156 9.89001L2.171 9.734C2.243 8.95551 2.3495 8.1995 2.501 7.631C2.63746 7.12128 2.9053 6.6563 3.27776 6.28252C3.65022 5.90874 4.11426 5.63926 4.6235 5.501C5.354 5.306 6.9395 5.186 8.6045 5.111L8.8595 5.1005L9.1175 5.0915L9.2465 5.087L9.503 5.0765C10.9306 5.03061 12.3587 5.00511 13.787 5L14.0765 4.9985ZM11.6 9.81351V17.0405L17.8355 13.4285L11.6 9.81351Z"
          fill="currentColor"/>
</svg>
